<svg xmlns="http://www.w3.org/2000/svg" xmlns:xlink="http://www.w3.org/1999/xlink" viewBox="0 0 2608.61 2250.56"><defs><style>.cls-1{fill:none;}.cls-2{fill:url(#linear-gradient);}.cls-3{fill:#231f20;}.cls-4{fill:#57c3bf;}.cls-5{fill:#fed5a1;}.cls-6{fill:#fff;}.cls-7{clip-path:url(#clip-path);}.cls-8{fill:url(#linear-gradient-2);}.cls-9{fill:#e63a95;}.cls-10{fill:#fcb415;}.cls-11{fill:#20b2a3;}.cls-12{fill:#f8ed3f;}.cls-13{clip-path:url(#clip-path-2);}.cls-14{clip-path:url(#clip-path-3);}.cls-15{fill:url(#linear-gradient-3);}.cls-16{fill:url(#linear-gradient-4);}.cls-17{clip-path:url(#clip-path-4);}.cls-18{fill:url(#linear-gradient-5);}.cls-19{fill:url(#linear-gradient-6);}.cls-20{fill:#594ea0;}.cls-21{fill:url(#linear-gradient-7);}.cls-22{fill:url(#linear-gradient-8);}.cls-23{fill:url(#linear-gradient-9);}</style><linearGradient id="linear-gradient" x1="226.18" y1="1124.54" x2="2347.45" y2="1124.54" gradientUnits="userSpaceOnUse"><stop offset="0" stop-color="#594ea0"/><stop offset="1" stop-color="#8378b8"/></linearGradient><clipPath id="clip-path"><polygon class="cls-1" points="1582.13 2140.14 1580.36 2102.22 1515.36 2111.55 1526.35 2142.75 1582.13 2140.14"/></clipPath><linearGradient id="linear-gradient-2" x1="1433.26" y1="1783.03" x2="2063.67" y2="1783.03" gradientUnits="userSpaceOnUse"><stop offset="0.12" stop-color="#fcb415"/><stop offset="0.66" stop-color="#fdb720"/><stop offset="0.7" stop-color="#fdbe38"/><stop offset="0.8" stop-color="#fecb64"/><stop offset="0.88" stop-color="#ffd484"/><stop offset="0.95" stop-color="#ffda98"/><stop offset="1" stop-color="#ffdc9f"/></linearGradient><clipPath id="clip-path-2"><polygon class="cls-1" points="586 2140.14 587.77 2102.22 652.77 2111.55 641.78 2142.75 586 2140.14"/></clipPath><clipPath id="clip-path-3"><polygon class="cls-1" points="994.7 2140.14 996.47 2102.22 1061.46 2111.55 1050.47 2142.75 994.7 2140.14"/></clipPath><linearGradient id="linear-gradient-3" x1="513.15" y1="1783.03" x2="1143.56" y2="1783.03" xlink:href="#linear-gradient-2"/><linearGradient id="linear-gradient-4" x1="558.39" y1="1211.61" x2="1245.41" y2="1211.61" gradientUnits="userSpaceOnUse"><stop offset="0.12" stop-color="#57c3bf"/><stop offset="0.66" stop-color="#5ac4c0"/><stop offset="1" stop-color="#9ed8d6"/></linearGradient><clipPath id="clip-path-4"><path class="cls-1" d="M488.31,2249.08h1614s280.18-290.08,112.48-621.89-104-490.72,31.93-702.21,189.09-651.36-310-669.82c-344.07-12.73-502.35-47.61-743.28-176.73-458.79-245.88-951.6,122.12-807,607.71,101.93,342.29,147.87,578.68-15,756.67C239.39,1587.07,59.33,1971.08,488.31,2249.08Z"/></clipPath><linearGradient id="linear-gradient-5" x1="1109.2" y1="271.71" x2="1589.53" y2="271.71" gradientTransform="translate(790.16 839.81) rotate(-14.53)" gradientUnits="userSpaceOnUse"><stop offset="0" stop-color="#fcb415"/><stop offset="0.41" stop-color="#fdc042"/><stop offset="0.8" stop-color="#ffca67"/><stop offset="1" stop-color="#ffce75"/></linearGradient><linearGradient id="linear-gradient-6" x1="1212.74" y1="135.27" x2="1645.01" y2="135.27" gradientTransform="translate(-859.42 -236.73) rotate(17.41)" xlink:href="#linear-gradient-5"/><linearGradient id="linear-gradient-7" x1="382.47" y1="2067.62" x2="13.99" y2="2067.62" gradientUnits="userSpaceOnUse"><stop offset="0.17" stop-color="#e63a95"/><stop offset="1" stop-color="#e963a4"/></linearGradient><linearGradient id="linear-gradient-8" x1="272.4" y1="2125.51" x2="523.02" y2="2125.51" xlink:href="#linear-gradient"/><linearGradient id="linear-gradient-9" x1="1881.43" y1="2081.57" x2="2608.61" y2="2081.57" gradientUnits="userSpaceOnUse"><stop offset="0.52" stop-color="#594ea0"/><stop offset="1" stop-color="#8378b8"/></linearGradient></defs><g id="Layer_2" data-name="Layer 2"><g id="Graphic"><path class="cls-2" d="M495.66,2249.08h1614s280.18-290.08,112.48-621.89S2118.12,1136.47,2254,925,2443.13,273.62,1944,255.16c-344.06-12.73-502.34-47.61-743.27-176.73-458.79-245.88-951.6,122.12-807,607.71,101.94,342.29,147.88,578.68-15,756.67C246.74,1587.07,66.68,1971.08,495.66,2249.08Z"/><rect class="cls-3" x="1863.02" y="2229.32" width="101.13" height="18.31"/><path class="cls-4" d="M1862.81,2229.5a50.78,50.78,0,0,1,101.55,0"/><polygon class="cls-4" points="1945.86 2148.42 1880.75 2148.42 1874.21 2213.07 1952.13 2213.07 1945.86 2148.42"/><polygon class="cls-5" points="1880.75 2148.42 1865.15 2039.7 1953.02 2039.7 1945.86 2148.42 1880.75 2148.42"/><polygon class="cls-6" points="1880.75 2148.42 1874.97 2108.16 1948.51 2108.16 1945.86 2148.42 1880.75 2148.42"/><path class="cls-5" d="M1576.68,2059.2l6,89.21s-20.2,33.9-50.77,10.13l-29.76-84.48Z"/><polygon class="cls-6" points="1582.13 2140.14 1580.36 2102.22 1515.36 2111.55 1526.35 2142.75 1582.13 2140.14"/><g class="cls-7"><rect class="cls-3" x="1574.33" y="2102.24" width="2" height="39.71" transform="translate(-203.83 167.73) rotate(-5.72)"/><rect class="cls-3" x="1562.58" y="2103.42" width="2" height="39.71" transform="translate(-204.01 166.57) rotate(-5.73)"/><rect class="cls-3" x="1549.92" y="2104.69" width="2" height="39.71" transform="translate(-204.24 165.35) rotate(-5.73)"/><rect class="cls-3" x="1538.11" y="2105.87" width="2" height="39.71" transform="translate(-204.31 164.08) rotate(-5.72)"/><rect class="cls-3" x="1527.08" y="2106.98" width="2" height="39.71" transform="translate(-204.6 163.09) rotate(-5.73)"/><rect class="cls-3" x="1517.33" y="2114.44" width="63.52" height="2" transform="translate(-272.86 229.9) rotate(-7.8)"/><rect class="cls-3" x="1518.93" y="2126.13" width="63.53" height="2" transform="translate(-274.53 230.32) rotate(-7.81)"/><rect class="cls-3" x="1520.66" y="2138.74" width="63.53" height="2" transform="translate(-276.24 230.68) rotate(-7.81)"/></g><path class="cls-4" d="M1591.87,2141.26h-91s19.79,45.12,0,53-106.09,1.59-106.09,37.21H1599Z"/><rect x="1394.74" y="2231.51" width="205.04" height="14.25"/><circle class="cls-6" cx="1556.69" cy="2198.63" r="16.97" transform="translate(-28.05 20.13) rotate(-0.73)"/><rect class="cls-3" x="1478.87" y="2191.11" width="12" height="30.92" transform="translate(-1173.52 2124.36) rotate(-54.29)"/><rect class="cls-3" x="1455.03" y="2192.58" width="12" height="29.07" transform="translate(-1183.88 2105.17) rotate(-54.29)"/><path class="cls-8" d="M1906.84,1677.14c19.87-112.19-24.41-181.85-44.61-200.37l-370.44-3.37s-40.42,147.65-53.45,309.83c-7.53,93.75-4.79,194.92-3.62,309.42h267.55s13.46-108.45-30.31-180.85-63.43-155.51-30-214.45,26.66-94.29,26.66-94.29l138.07,489.59h254.26s20.2-113.5-48.83-189.27S1892.71,1756.89,1906.84,1677.14Z"/><polyline class="cls-5" points="1227.67 756.01 1185.22 714.53 1159.41 621.09 1140.62 611.53 1140.62 726.51 1191.59 792.53"/><path class="cls-9" d="M1712.54,1110.28l-152.52,20c-16.93-16.89-58.78-63-155.36-186.19-142.28-181.54-215.59-232-215.59-232l-41.42,27.65c-3.18,64.82,42.51,49.92,55.22,127.72,14.87,91,91.32,94.16,87.07,155.54-4.71,68.09,51,136.12,51,136.12s55.21,282.44,26.54,404.55c0,0,336.65,130.87,584.05-60.26C1951.5,1503.42,1788,1211.61,1712.54,1110.28Z"/><path class="cls-10" d="M1438.38,1083.07a26.47,26.47,0,1,1-26.47-26.48A26.47,26.47,0,0,1,1438.38,1083.07Z"/><path class="cls-10" d="M1434.39,1118.63a22.48,22.48,0,1,1-22.48-22.48A22.49,22.49,0,0,1,1434.39,1118.63Z"/><path class="cls-10" d="M1429.08,1150.31a17.17,17.17,0,1,1-17.17-17.17A17.16,17.16,0,0,1,1429.08,1150.31Z"/><path class="cls-5" d="M1461.05,1017.43a47,47,0,0,1-94,0c0-26,9.91-58.16,35.88-58.16C1448.67,959.27,1461.05,991.46,1461.05,1017.43Z"/><path class="cls-5" d="M1414,1045.48s18.15,18.23,22.27,46.24c0,0,33.82,11.18,54.45-41.46l-30.45-43.73Z"/><polyline class="cls-5" points="1340.95 840.43 1298.51 798.94 1272.69 705.5 1253.91 695.95 1253.91 810.93 1304.88 876.95"/><path class="cls-10" d="M1356.62,1006.53h22.56s-1.43-35.77,15.56-44.84c0,0-11.31,30-.7,44.84h14.87s42.26,61.2,82.75,59.29c0,0,23.45-1.43,30.87-17.57,13.9-30.28,23.48-83.33-27.35-114.69C1417.27,885.48,1356.92,941,1356.62,1006.53Z"/><path class="cls-10" d="M1534.46,1074.72a26.48,26.48,0,1,1-26.48-26.47A26.47,26.47,0,0,1,1534.46,1074.72Z"/><path class="cls-10" d="M1536.61,1110.28a22.48,22.48,0,1,1-22.48-22.47A22.47,22.47,0,0,1,1536.61,1110.28Z"/><path class="cls-10" d="M1531.3,1142a17.17,17.17,0,1,1-17.17-17.17A17.17,17.17,0,0,1,1531.3,1142Z"/><rect class="cls-3" x="1906.62" y="2108.16" width="2" height="40.26"/><path class="cls-9" d="M1712.54,1110.28C1542.65,867.47,1307,802.62,1307,802.62l-37,37.06s-1.9,53,71,68.06c61.59,12.74,48.33,66.79,145.47,104.12,71.15,27.34-8.49,147.27,109.37,180.45"/><path class="cls-6" d="M1587.94,1192.5c-61.43-25-64.37-61.54-67.77-103.86-.59-7.3-1.2-14.84-2.13-22.48-5-40.9-24.29-49.88-56.24-64.74-6.66-3.1-14.2-6.61-22.13-10.66-19.46-10-31-24.45-42.22-38.48-15.63-19.58-30.39-38.08-65.4-44.1-32.82-5.64-48.64-23.93-56.13-38.29a74,74,0,0,1-8.44-30.16l0-1.06,37.75-37.82,3.54,3.53-36.22,36.28a71.77,71.77,0,0,0,7.92,27.1c10.16,19.32,27.8,31.26,52.44,35.5,36.89,6.33,52.94,26.45,68.46,45.9,10.86,13.61,22.09,27.68,40.6,37.15,7.84,4,15,7.35,22,10.58,32.37,15.06,53.75,25,59.09,68.67,1,7.73,1.56,15.33,2.15,22.68,3.27,40.67,6.1,75.79,64.68,99.63Z"/><rect class="cls-6" x="1265.74" y="836.77" width="61.83" height="5" transform="translate(-215.7 1153.07) rotate(-44.64)"/><path class="cls-6" d="M1537.81,1585.27h-.88v-4h.63c3.81,0,7.6,0,11.35-.06l0,4C1545.27,1585.25,1541.55,1585.27,1537.81,1585.27Zm-12.9-.07q-6-.06-12-.2l.09-4q6,.13,12,.2ZM1561,1585l-.09-4c4-.09,8-.2,12-.33l.14,4C1569,1584.82,1565,1584.93,1561,1585Zm-60.09-.35q-4.83-.15-9.7-.35l.16-4,9.66.36Zm84.12-.46-.18-4c4-.18,8-.38,12-.61l.24,4C1593,1583.82,1589,1584,1585,1584.21Zm24-1.39-.28-4c4-.28,8-.59,11.94-.92l.33,4C1617.06,1582.22,1613,1582.53,1609,1582.82Zm24-2-.39-4c4-.38,8-.8,11.91-1.24l.44,4C1641,1580,1636.93,1580.43,1633,1580.81Zm23.9-2.65-.5-4c4-.49,8-1,11.87-1.57l.55,4C1664.86,1577.13,1660.85,1577.66,1656.87,1578.16Zm23.82-3.33-.61-4c3.93-.61,7.9-1.25,11.81-1.92l.67,3.94C1688.64,1573.56,1684.64,1574.21,1680.69,1574.83Zm23.71-4.06-.74-3.93c3.94-.73,7.89-1.51,11.75-2.29l.8,3.92C1712.33,1569.26,1708.36,1570,1704.4,1570.77ZM1728,1566l-.86-3.9c3.87-.86,7.79-1.76,11.66-2.69l.93,3.89C1735.81,1564.19,1731.87,1565.1,1728,1566Zm23.4-5.61-1-3.87c3.88-1,7.76-2,11.55-3.11l1.08,3.86C1759.18,1558.29,1755.27,1559.34,1751.37,1560.35Zm23.19-6.46-1.15-3.83c3.81-1.14,7.65-2.33,11.42-3.55l1.22,3.81C1782.26,1551.54,1778.39,1552.74,1774.56,1553.89Zm22.92-7.36-1.3-3.79c3.78-1.3,7.57-2.65,11.26-4l1.38,3.75C1805.11,1543.86,1801.29,1545.21,1797.48,1546.53Zm22.6-8.32-1.47-3.73c3.71-1.46,7.44-3,11.07-4.5l1.55,3.69C1827.57,1535.21,1823.82,1536.73,1820.08,1538.21Zm22.2-9.35-1.64-3.64c3.64-1.64,7.29-3.33,10.83-5l1.74,3.61C1849.63,1525.51,1846,1527.21,1842.28,1528.86Zm21.72-10.44-1.83-3.56c3.57-1.83,7.11-3.72,10.54-5.61l1.93,3.51C1871.18,1514.67,1867.6,1516.57,1864,1518.42Zm21.12-11.64-2-3.44c3.47-2,6.89-4.15,10.17-6.25l2.15,3.38C1892.08,1502.58,1888.62,1504.71,1885.12,1506.78Zm20.35-13-2.28-3.29c3.35-2.31,6.61-4.66,9.67-7l2.41,3.19C1912.16,1489.07,1908.86,1491.45,1905.47,1493.79Zm19.28-14.61-2.58-3.06a115.86,115.86,0,0,0,8.72-7.95l2.91,2.74A115,115,0,0,1,1924.75,1479.18Z"/><path class="cls-6" d="M1350.84,1231.76l-12.29-71.57c-24.47-30.25-50.7-79.25-51.37-126.68-.56-40.36-11.37-51.29-23.89-64-1.67-1.69-3.4-3.44-5.14-5.29-2.67-2.84-5.93-6-9.38-9.32-16.14-15.56-38.24-36.89-44-67.89-.62-3.35-1.2-6.57-1.77-9.69-5.88-32.64-9.43-52.34-34.37-75.64C1140,775,1145,740.81,1145.18,739.37l.17-1.09L1187.68,710l2.77,4.16-40.45,27c-.55,5.81-1.9,34.5,22,56.88,26.14,24.43,30,45.9,35.88,78.4.56,3.11,1.14,6.33,1.76,9.67,5.47,29.43,26.91,50.11,42.56,65.21,3.5,3.37,6.8,6.55,9.55,9.49,1.7,1.8,3.41,3.53,5.06,5.2,13.27,13.43,24.74,25,25.33,67.39.66,46.43,26.6,94.56,50.66,124.12l.42.51,12.51,72.86Z"/><rect class="cls-6" x="1144.66" y="743.58" width="53.95" height="5" transform="translate(-216.84 707.55) rotate(-30.9)"/><path class="cls-3" d="M1384.36,1019.15c.2,2.4-1.28,4.48-3.31,4.65s-3.84-1.63-4-4,1.28-4.48,3.3-4.65S1384.15,1016.75,1384.36,1019.15Z"/><path class="cls-3" d="M1412.47,1019.15c.21,2.4-1.27,4.48-3.3,4.65s-3.84-1.63-4-4,1.27-4.48,3.3-4.65S1412.27,1016.75,1412.47,1019.15Z"/><polygon class="cls-3" points="1397.28 1039.94 1384.49 1037.91 1391.64 1010.82 1394.54 1011.58 1388.24 1035.46 1397.75 1036.97 1397.28 1039.94"/><path class="cls-3" d="M1405,1049.75a10.87,10.87,0,0,1-2-.2,10.43,10.43,0,0,1-6.71-4.46l2.49-1.67a7.51,7.51,0,0,0,10.44,2,7.55,7.55,0,0,0,2-10.45l2.49-1.67a10.54,10.54,0,0,1-2.87,14.61A10.43,10.43,0,0,1,1405,1049.75Z"/><polyline class="cls-5" points="1743.56 1216.88 1753.59 1204.09 1745.66 1180.59 1751.59 1177.77 1761.61 1191.3 1774.65 1154.2 1809.75 1174.34 1782.67 1216.88 1752.59 1230.42"/><polygon class="cls-3" points="1727.51 2247.63 1694.15 2247.63 1694.15 2229.7 1742.99 2229.7 1727.51 2247.63"/><polygon class="cls-3" points="1757.29 2247.63 1891.38 2247.63 1891.38 2229.7 1742.99 2229.7 1757.29 2247.63"/><path class="cls-9" d="M1694.15,2160h63.75s26.9,22.91,78.69,24.9,54.79,44.83,54.79,44.83H1694.15Z"/><path class="cls-3" d="M1792.42,2186.76h0c-13.07,0-21.14-6.24-22.1-12.11-.63-3.88,1.71-7.11,6.25-8.63a15.1,15.1,0,0,1,4.76-.75c13.19,0,26.41,16,27,16.67l1.42,1.74-2.14.65A52.33,52.33,0,0,1,1792.42,2186.76Zm-11.1-18.49a12,12,0,0,0-3.81.6c-3.12,1-4.62,2.92-4.23,5.3.64,4,7,9.59,19.13,9.59h0a47.49,47.49,0,0,0,12-1.66C1800.68,2178,1790.69,2168.27,1781.32,2168.27Z"/><path class="cls-3" d="M1821.84,2186.76a52.33,52.33,0,0,1-15.15-2.43l-2.14-.65,1.42-1.74c.55-.68,13.78-16.67,27-16.67a15.1,15.1,0,0,1,4.76.75c4.54,1.52,6.88,4.75,6.24,8.63C1843,2180.52,1834.92,2186.76,1821.84,2186.76Zm-12-4.66a47.49,47.49,0,0,0,12,1.66c12.13,0,18.5-5.61,19.14-9.59.39-2.38-1.11-4.26-4.23-5.3a12.06,12.06,0,0,0-3.81-.6C1823.56,2168.27,1813.58,2178,1809.83,2182.1Z"/><polygon class="cls-3" points="1817.49 2208.86 1806.74 2187.79 1790.49 2204.25 1788.36 2202.14 1807.52 2182.73 1820.17 2207.49 1817.49 2208.86"/><path class="cls-3" d="M1741.55,2222.14c-4.38-15.58-13.63-25.5-27.49-29.47a47.77,47.77,0,0,0-19.64-1.34l-.54-2.95c.39-.08,39.4-6.76,50.56,32.94Z"/><polygon class="cls-5" points="1694.15 2159.97 1678.87 2053.52 1764.9 2053.52 1757.9 2159.97 1694.15 2159.97"/><polygon class="cls-4" points="1694.15 2159.97 1688.49 2120.55 1760.49 2120.55 1757.9 2159.97 1694.15 2159.97"/><rect class="cls-6" x="1694.15" y="2125.6" width="65.92" height="3"/><path class="cls-11" d="M1406.43,1200.75s-24.06-8.48-41.41,10.86-5.31,42-39.64,70.31-20.17,57.39-7.79,69l100.7-2.42"/><path class="cls-5" d="M1456.76,1262.76a37.08,37.08,0,1,1-37.07-37.08A37.08,37.08,0,0,1,1456.76,1262.76Z"/><path class="cls-11" d="M1461.05,1250.42s2-11.78-10.41-35-44.21-14.65-44.21-14.65c-39.42,13.53-34.12,48.57-32.16,50,37,27.45,43-20.89,43-20.89s19.85,7.95,17.15,21.27Z"/><path class="cls-5" d="M1395.07,1260.11s-8.5-8.48-15.73-3c-7.95,6-.43,21.63,12.28,17.51"/><path class="cls-11" d="M1369.61,1211.61a17.16,17.16,0,1,1-17.16-17.16A17.16,17.16,0,0,1,1369.61,1211.61Z"/><path class="cls-11" d="M1349.88,1232.34a18.16,18.16,0,1,1,18.16-18.16A18.19,18.19,0,0,1,1349.88,1232.34Zm0-34.32a16.16,16.16,0,1,0,16.16,16.16A16.18,16.18,0,0,0,1349.88,1198Z"/><path class="cls-11" d="M1450.82,1232.34a18.16,18.16,0,1,1,18.16-18.16A18.19,18.19,0,0,1,1450.82,1232.34Zm0-34.32a16.16,16.16,0,1,0,16.16,16.16A16.18,16.18,0,0,0,1450.82,1198Z"/><path class="cls-11" d="M1465.29,1211.61a17.16,17.16,0,1,1-17.16-17.16A17.16,17.16,0,0,1,1465.29,1211.61Z"/><path class="cls-3" d="M1420.16,1262.59h-3a5.25,5.25,0,0,0-10.5,0h-3a8.25,8.25,0,0,1,16.5,0Z"/><path class="cls-3" d="M1450.79,1262.59h-3a5.25,5.25,0,0,0-10.5,0h-3a8.25,8.25,0,0,1,16.5,0Z"/><path class="cls-3" d="M1412,1286.06a10.17,10.17,0,0,1-3.81-.74,10.28,10.28,0,0,1-5.71-13.34c.68-1.71,1.7-2.58,3-2.58s2.63,1,4,2.28a14.89,14.89,0,0,0,3.88,2.71,9.24,9.24,0,0,0,3.43.54h1l.83,0a3.4,3.4,0,0,1,3,1.14c.74,1.1.33,2.48-.1,3.56A10.23,10.23,0,0,1,1412,1286.06Zm-6.39-13.63a3.06,3.06,0,0,0-.35.67,7.26,7.26,0,1,0,13.48,5.39,4.85,4.85,0,0,0,.21-.58h-1.08l-1,0a12,12,0,0,1-4.54-.76,17.19,17.19,0,0,1-4.74-3.23A12.68,12.68,0,0,0,1405.63,1272.43Z"/><polygon class="cls-3" points="1428.26 1277.97 1426.92 1275.29 1433.78 1271.87 1424.91 1253.83 1427.6 1252.5 1437.79 1273.22 1428.26 1277.97"/><path class="cls-5" d="M1398.79,1289s1.79,17.79-2.51,27.22c0,0,10.31,14.65,28.92,11s21.16-16.23,21.16-16.23-9.36-14.13-8.32-22"/><rect class="cls-3" x="1758.47" y="1171.69" width="37.09" height="3" transform="translate(-10.42 2330.46) rotate(-66.35)"/><rect class="cls-3" x="1767.33" y="1176.65" width="37.06" height="3" transform="translate(-102.23 2184.36) rotate(-61.47)"/><rect class="cls-3" x="1775.94" y="1181.96" width="35.76" height="3" transform="translate(-154.75 2089.79) rotate(-58.36)"/><rect class="cls-3" x="1876.12" y="2115.8" width="71.73" height="2"/><rect class="cls-3" x="1877.79" y="2126.79" width="69.4" height="2"/><rect class="cls-3" x="1879.3" y="2138.88" width="67.13" height="2"/><rect class="cls-3" x="1884.67" y="2108.16" width="2" height="40.26"/><rect class="cls-3" x="1895.47" y="2108.16" width="2" height="40.26"/><rect class="cls-3" x="1917.94" y="2108.16" width="2" height="40.26"/><rect class="cls-3" x="1929.09" y="2108.16" width="2" height="40.26"/><rect class="cls-3" x="1940.06" y="2108.16" width="2" height="40.26"/><rect class="cls-3" x="1901.2" y="2189.66" width="31.15" height="12"/><path class="cls-6" d="M1741.3,1200.75s-139.21,141.17-297,106.48l0,0,0,0-5.26-11.11c-18,9.27-40,5.12-40,5.12l-2,12.91s-78.29,54.24-201.59,31.06c-95.66-18-180.51-122.47-180.51-122.47L979.17,1269s99.47,209.85,341.89,207.83c0,0,116,6.12,218.45-31.82,114.68-42.47,241-195.37,241-195.37Z"/><path class="cls-3" d="M1416.48,1319.06a69.62,69.62,0,0,1-21.33-3.66l1.92-1.25c.25.09,26.16,8.77,45.12-5.13l1.24,1.28A45.46,45.46,0,0,1,1416.48,1319.06Z"/><rect class="cls-3" x="1395.12" y="1307.84" width="14.27" height="2" transform="translate(-118.99 2477.27) rotate(-80.55)"/><rect class="cls-3" x="1409.04" y="1302.16" width="2" height="15.58"/><rect class="cls-3" x="1416.72" y="1301.9" width="2" height="16.08" transform="translate(-88.46 102.76) rotate(-4.03)"/><rect class="cls-3" x="1425.26" y="1300.74" width="2" height="16.25" transform="translate(-195.02 251.14) rotate(-9.42)"/><rect class="cls-3" x="1434.79" y="1298.08" width="2" height="15.19" transform="translate(-307.92 453.76) rotate(-16.24)"/><path class="cls-3" d="M1767.05,1267.76a2.47,2.47,0,0,1-2-1l-40.47-51a2.5,2.5,0,0,1,3.92-3.11l40.47,51a2.5,2.5,0,0,1-2,4Z"/><path class="cls-3" d="M1748.47,1288.13a2.49,2.49,0,0,1-2-1.05l-40.08-56.42a2.5,2.5,0,1,1,4.07-2.9l40.08,56.42a2.5,2.5,0,0,1-2,4Z"/><path class="cls-3" d="M1726.6,1310.85a2.52,2.52,0,0,1-2.11-1.15l-40.37-62.87a2.5,2.5,0,1,1,4.2-2.7L1728.7,1307a2.5,2.5,0,0,1-2.1,3.85Z"/><path class="cls-3" d="M1701,1335.8a2.51,2.51,0,0,1-2.16-1.23L1657.11,1264a2.5,2.5,0,0,1,4.31-2.55l41.77,70.54a2.51,2.51,0,0,1-.88,3.43A2.56,2.56,0,0,1,1701,1335.8Z"/><path class="cls-3" d="M1674.36,1361.34a2.49,2.49,0,0,1-2.2-1.32l-43.43-81.11a2.5,2.5,0,1,1,4.41-2.36l43.42,81.11a2.5,2.5,0,0,1-2.2,3.68Z"/><path class="cls-3" d="M1641,1387.46a2.49,2.49,0,0,1-2.32-1.57l-37.56-94.49a2.5,2.5,0,0,1,4.65-1.85l37.56,94.49a2.51,2.51,0,0,1-1.4,3.25A2.55,2.55,0,0,1,1641,1387.46Z"/><path class="cls-3" d="M1600.87,1416a2.5,2.5,0,0,1-2.41-1.84l-30.22-111.54a2.5,2.5,0,1,1,4.82-1.31l30.23,111.54a2.51,2.51,0,0,1-1.76,3.07A3,3,0,0,1,1600.87,1416Z"/><path class="cls-3" d="M1554.23,1441.5a2.49,2.49,0,0,1-2.47-2.16l-17.63-129.66a2.5,2.5,0,1,1,5-.67l17.62,129.66a2.49,2.49,0,0,1-2.14,2.81A1.88,1.88,0,0,1,1554.23,1441.5Z"/><path class="cls-3" d="M1279.47,1477.55l-.3,0a2.5,2.5,0,0,1-2.19-2.78l15.38-126.51a2.5,2.5,0,0,1,5,.6L1282,1475.35A2.5,2.5,0,0,1,1279.47,1477.55Z"/><path class="cls-3" d="M1228,1469a2.61,2.61,0,0,1-.48,0,2.51,2.51,0,0,1-2-2.94l22.74-115.56a2.5,2.5,0,0,1,4.91,1L1230.41,1467A2.5,2.5,0,0,1,1228,1469Z"/><path class="cls-3" d="M1183.59,1455.26a2.46,2.46,0,0,1-.53-.06,2.5,2.5,0,0,1-1.91-3l23.08-105.63a2.5,2.5,0,1,1,4.89,1.07L1186,1453.29A2.5,2.5,0,0,1,1183.59,1455.26Z"/><path class="cls-3" d="M1140.36,1435.36a2.49,2.49,0,0,1-2.37-3.29l31.37-93.88a2.5,2.5,0,0,1,4.75,1.58l-31.38,93.89A2.51,2.51,0,0,1,1140.36,1435.36Z"/><path class="cls-3" d="M1103.63,1412.56a2.33,2.33,0,0,1-.86-.15,2.49,2.49,0,0,1-1.49-3.2l31.77-86.89a2.5,2.5,0,1,1,4.69,1.71L1106,1410.92A2.48,2.48,0,0,1,1103.63,1412.56Z"/><path class="cls-3" d="M1065.56,1382.06a2.47,2.47,0,0,1-1.33-.38,2.5,2.5,0,0,1-.78-3.45l44.93-71.22a2.5,2.5,0,1,1,4.22,2.67l-44.92,71.22A2.51,2.51,0,0,1,1065.56,1382.06Z"/><path class="cls-3" d="M1036.93,1353.42a2.46,2.46,0,0,1-1.55-.54,2.51,2.51,0,0,1-.41-3.51l48.2-60.81a2.5,2.5,0,0,1,3.92,3.11l-48.2,60.81A2.49,2.49,0,0,1,1036.93,1353.42Z"/><path class="cls-3" d="M1010.71,1323a2.47,2.47,0,0,1-1.63-.61,2.5,2.5,0,0,1-.26-3.53l47.8-55.26a2.5,2.5,0,0,1,3.78,3.28l-47.8,55.25A2.46,2.46,0,0,1,1010.71,1323Z"/><path class="cls-3" d="M991.3,1293.07a2.5,2.5,0,0,1-2-4l38.82-50.8a2.5,2.5,0,1,1,4,3l-38.82,50.8A2.51,2.51,0,0,1,991.3,1293.07Z"/><path class="cls-3" d="M1357.94,1343a2.5,2.5,0,0,1-.3-5l127.42-15.75a2.5,2.5,0,1,1,.61,5L1358.25,1343Z"/><path class="cls-3" d="M1357.94,1369.22a2.5,2.5,0,0,1-.3-5l127.42-15.75a2.5,2.5,0,0,1,.61,5l-127.42,15.75Z"/><path class="cls-3" d="M1357.94,1396.86a2.5,2.5,0,0,1-.3-5l127.42-15.75a2.5,2.5,0,1,1,.61,5l-127.42,15.75Z"/><path class="cls-3" d="M1357.61,1430a2.5,2.5,0,0,1-.3-5l127.42-15.75a2.5,2.5,0,0,1,.61,5L1357.92,1430Z"/><path class="cls-12" d="M1050.4,1739.34S1170,1844.18,1238.5,1783s31.94-136,55.79-210.86,52.47-158.89,36.21-230.55l30.58-9.88,15,113.41,101.66-14.58,2.31-118.45,29.39-.18s-3.37,261.82,138.37,344.64,245.25,311.87,202.72,445.64l-277.18.12s2-63.52,31.84-108.12,23.51-74.85-29-132.19-107.26-78.82-103.52-145.71c0,0-113.64,424.94-422.22,170.31Z"/><path class="cls-3" d="M1296.57,1621.12a56,56,0,0,1-11.27-1l-2-.46.1-2.09c.8-18,9.09-45.88,18.68-78.21,8.93-30.12,19.06-64.27,24.56-95.79,8.75-50.25,1.09-102.17,1-102.69l4.94-.74c.08.52,7.87,53.21-1,104.28-5.54,31.81-15.72,66.11-24.69,96.36-9.11,30.7-17,57.37-18.34,74.81a64.18,64.18,0,0,0,25-1.72c19.43-5.37,33.5-19.46,41.82-41.87l4.69,1.74c-11.15,30-30.84,41-45.39,45A68.58,68.58,0,0,1,1296.57,1621.12Z"/><path class="cls-3" d="M1357.61,1451.29a6.14,6.14,0,1,1-6.14-6.14A6.14,6.14,0,0,1,1357.61,1451.29Z"/><path class="cls-3" d="M1505.8,1432.86a6.14,6.14,0,1,1-6.14-6.14A6.14,6.14,0,0,1,1505.8,1432.86Z"/><rect class="cls-3" x="1419.66" y="1368.84" width="118.47" height="5" transform="translate(78.92 2823.17) rotate(-88.88)"/><path class="cls-3" d="M1200.59,1854.17v-4c4,0,8-.19,11.8-.54l.37,4C1208.78,1854,1204.69,1854.16,1200.59,1854.17Zm-12.15-.47c-3.94-.31-8-.77-12.07-1.38l.6-4c4,.6,7.93,1.05,11.78,1.35Zm36.38-1.78-.75-3.93a113,113,0,0,0,11.44-2.8l1.16,3.83A116.38,116.38,0,0,1,1224.82,1851.92Zm-60.38-1.78c-3.86-.84-7.82-1.81-11.78-2.9l1.07-3.85c3.88,1.06,7.77,2,11.55,2.84Zm83.71-5.29-1.57-3.68a103.28,103.28,0,0,0,10.55-5.21l2,3.48A109.09,109.09,0,0,1,1248.15,1844.85Zm-107.07-1.13c-3.77-1.24-7.6-2.61-11.4-4.06l1.43-3.74c3.74,1.43,7.52,2.78,11.22,4Zm-22.6-8.62c-3.64-1.57-7.34-3.25-11-5l1.73-3.61c3.62,1.73,7.27,3.39,10.86,4.94Zm150.9-2.24-2.33-3.24a115.8,115.8,0,0,0,9.19-7.37l2.66,3A117.63,117.63,0,0,1,1269.38,1832.86Zm-172.72-8.16c-3.52-1.83-7.09-3.77-10.61-5.76l2-3.49c3.48,2,7,3.89,10.49,5.71Zm190.94-8-2.92-2.73c2.67-2.86,5.3-5.87,7.83-8.92l3.08,2.54C1293,1810.72,1290.33,1813.79,1287.6,1816.71Zm-212-3.89c-3.46-2.11-6.9-4.28-10.22-6.46l2.2-3.34c3.28,2.15,6.68,4.3,10.1,6.38Zm-20.22-13.28c-6.45-4.58-6.61-4.9-6.8-5.28l3.58-1.79-1.79.9,1.24-1.57s2.15,1.68,6.09,4.48Zm247.63-1.49-3.23-2.37c2.32-3.15,4.6-6.44,6.78-9.77l3.34,2.19C1307.72,1791.49,1305.4,1794.84,1303,1798.05Zm13.25-20.24-3.45-2c2-3.37,3.9-6.88,5.74-10.42l3.55,1.84C1320.26,1770.81,1318.3,1774.38,1316.29,1777.81Zm11.17-21.45-3.63-1.68c1.65-3.56,3.25-7.23,4.77-10.92l3.7,1.52C1330.76,1749,1329.13,1752.75,1327.46,1756.36Zm9.22-22.34-3.76-1.38c1.34-3.67,2.65-7.47,3.87-11.28l3.81,1.23C1339.36,1726.44,1338,1730.29,1336.68,1734Zm7.41-23-3.84-1.08c1.07-3.79,2.09-7.68,3-11.55l3.89,1C1346.22,1703.26,1345.18,1707.19,1344.09,1711Zm5.78-23.44-3.91-.83c.82-3.86,1.58-7.81,2.29-11.73l3.93.71C1351.47,1679.69,1350.7,1683.67,1349.87,1687.58Zm4.26-23.77-4-.58c.58-3.92,1.11-7.91,1.57-11.85l4,.47C1355.24,1655.83,1354.71,1659.86,1354.13,1663.81Zm2.81-24-4-.34c.35-4,.64-8,.86-11.92l4,.22C1357.58,1631.75,1357.29,1635.8,1356.94,1639.83Zm1.34-24.12-4-.09c0-2.1.07-4.17.07-6.14,0-3.67-.09-5.72-.09-5.74l4-.17c0,.09.09,2.15.09,5.91C1358.35,1611.48,1358.32,1613.58,1358.28,1615.71Z"/><path class="cls-3" d="M1407.91,1553.68c-8.43,0-16.39-.34-23.75-.89-45.63-3.43-78.57-15.44-78.9-15.56l1.73-4.69c.33.12,32.73,11.92,77.7,15.27,41.37,3.09,102.17-.56,156.88-35.44l2.69,4.22C1498.1,1546,1447.79,1553.68,1407.91,1553.68Z"/><path class="cls-3" d="M1406.4,1570.72c-7.58,0-14.79-.25-21.55-.65-48.31-2.88-84-14.33-84.33-14.45l1.55-4.75c.35.11,35.51,11.39,83.21,14.22,43.89,2.6,107.69-1.62,162.43-36.51l2.68,4.21C1503,1563,1449,1570.72,1406.4,1570.72Z"/><polyline class="cls-5" points="1053.58 744.26 1096.03 714.53 1121.84 621.09 1140.62 611.53 1140.62 726.51 1083.28 780.36"/><polyline class="cls-5" points="1167.9 840.43 1210.35 798.94 1236.16 705.5 1254.95 695.95 1254.95 810.93 1203.98 876.95"/><path class="cls-5" d="M591.44,2059.2l-6,89.21s20.21,33.9,50.78,10.13L666,2074.06Z"/><polygon class="cls-6" points="586 2140.14 587.77 2102.22 652.77 2111.55 641.78 2142.75 586 2140.14"/><g class="cls-13"><rect class="cls-3" x="572.94" y="2121.09" width="39.71" height="2" transform="translate(-1577.78 2500.61) rotate(-84.28)"/><rect class="cls-3" x="584.69" y="2122.27" width="39.71" height="2" transform="translate(-1568.38 2513.36) rotate(-84.28)"/><rect class="cls-3" x="597.35" y="2123.54" width="39.71" height="2" transform="translate(-1558.27 2526.98) rotate(-84.28)"/><rect class="cls-3" x="609.17" y="2124.73" width="39.71" height="2" transform="translate(-1548.8 2539.82) rotate(-84.28)"/><rect class="cls-3" x="620.19" y="2125.83" width="39.71" height="2" transform="translate(-1539.97 2551.77) rotate(-84.28)"/><rect class="cls-3" x="618.04" y="2083.67" width="2" height="63.52" transform="translate(-1560.93 2441.03) rotate(-82.18)"/><rect class="cls-3" x="616.43" y="2095.37" width="2" height="63.53" transform="translate(-1573.93 2449.41) rotate(-82.18)"/><rect class="cls-3" x="614.7" y="2107.97" width="2" height="63.53" transform="translate(-1587.9 2458.68) rotate(-82.18)"/></g><path class="cls-4" d="M576.26,2141.26h91s-19.79,45.12,0,53,106.08,1.59,106.08,37.21H569.13Z"/><rect x="568.34" y="2231.51" width="205.04" height="14.25"/><path class="cls-6" d="M628.4,2198.63a17,17,0,1,1-17-17A17,17,0,0,1,628.4,2198.63Z"/><rect class="cls-3" x="667.8" y="2200.57" width="30.92" height="12" transform="translate(-1159.42 813.61) rotate(-35.71)"/><rect class="cls-3" x="692.57" y="2201.11" width="29.07" height="12" transform="translate(-1155.26 827.63) rotate(-35.71)"/><path class="cls-5" d="M1000.14,2059.2l-6,89.21s20.2,33.9,50.77,10.13l29.76-84.48Z"/><polygon class="cls-6" points="994.7 2140.14 996.47 2102.22 1061.46 2111.55 1050.47 2142.75 994.7 2140.14"/><g class="cls-14"><rect class="cls-3" x="981.64" y="2121.09" width="39.71" height="2" transform="translate(-1209.8 2907.26) rotate(-84.28)"/><rect class="cls-3" x="993.39" y="2122.27" width="39.71" height="2" transform="translate(-1200.39 2920.01) rotate(-84.28)"/><rect class="cls-3" x="1006.04" y="2123.54" width="39.71" height="2" transform="translate(-1190.3 2933.64) rotate(-84.28)"/><rect class="cls-3" x="1017.86" y="2124.73" width="39.71" height="2" transform="translate(-1180.83 2946.46) rotate(-84.28)"/><rect class="cls-3" x="1028.89" y="2125.83" width="39.7" height="2" transform="translate(-1172 2958.43) rotate(-84.28)"/><rect class="cls-3" x="1026.73" y="2083.67" width="2" height="63.52" transform="matrix(0.14, -0.99, 0.99, 0.14, -1207.81, 2845.94)"/><rect class="cls-3" x="1025.13" y="2095.37" width="2" height="63.53" transform="translate(-1220.84 2854.3) rotate(-82.18)"/><rect class="cls-3" x="1023.39" y="2107.97" width="2" height="63.53" transform="translate(-1234.79 2863.58) rotate(-82.18)"/></g><path class="cls-4" d="M985,2141.26h91s-19.8,45.12,0,53,106.08,1.59,106.08,37.21H977.83Z"/><rect x="977.04" y="2231.51" width="205.04" height="14.25"/><path class="cls-6" d="M1037.09,2198.63a17,17,0,1,1-17-17A17,17,0,0,1,1037.09,2198.63Z"/><rect class="cls-3" x="1076.49" y="2200.57" width="30.92" height="12" transform="translate(-1082.59 1052.15) rotate(-35.71)"/><rect class="cls-3" x="1101.26" y="2201.11" width="29.07" height="12" transform="translate(-1078.42 1066.17) rotate(-35.71)"/><path class="cls-15" d="M670,1677.14c-19.89-112.19,24.4-181.85,44.6-200.37L1085,1473.4s40.42,147.65,53.45,309.83c7.53,93.75,4.79,194.92,3.62,309.42H874.55s-13.46-108.45,30.31-180.85,63.43-155.51,30-214.45-26.66-94.29-26.66-94.29L770.16,2092.65H515.9s-20.2-113.5,48.83-189.27S684.11,1756.89,670,1677.14Z"/><path class="cls-5" d="M1062.78,1039.2a53.36,53.36,0,1,1-53.35-53.36A53.35,53.35,0,0,1,1062.78,1039.2Z"/><path class="cls-16" d="M1245.39,831.59l-48.28-31.7s-88.69,69.93-192.75,279.11H986.51a432.19,432.19,0,0,1,7-55.81c31-20.65,53.38-34.08,51.58-102.71-1.39-53.41,8.77-77.64,41.2-100.74,29.39-20.93,31.9-70.81,31.9-70.81l-38.4-35.2C823.85,859.2,558.39,1632.2,558.39,1632.2,905.11,1834,1229.46,1577,1229.46,1577s-116.8-176.26-89.19-398.18a65.69,65.69,0,0,0,.14-6.58c56.89-79.55,40-118.72,37-172.05-2.49-44.63,21.75-56,45.64-87.89S1245.39,831.59,1245.39,831.59Z"/><path class="cls-9" d="M1026,1038.08s-13.36-10.36-22.13,1.12,8.23,24.53,8.23,24.53-4.65,9.24,4,28.82,12.74,24.94,8,55.32-7.43,56.71,4,71.56c0,0-107.34,122.86-217.37-18.23,0,0,35.1-14.85,42.53-38.48s-2.7-81.68,38.47-104,47.12-33,58.06-64.8c14.18-41.18,82-58.11,103.78-5.46"/><path class="cls-9" d="M949.85,987.26a24.72,24.72,0,1,1,24.71-24.71A24.73,24.73,0,0,1,949.85,987.26Zm0-47.43a22.72,22.72,0,1,0,22.71,22.72A22.74,22.74,0,0,0,949.85,939.83Z"/><path class="cls-9" d="M983.42,955.55a27.35,27.35,0,1,1-27.35-27.34A27.34,27.34,0,0,1,983.42,955.55Z"/><rect class="cls-3" x="1573.35" y="2099.72" width="277.18" height="5"/><rect class="cls-3" x="1576.32" y="2072.25" width="280.71" height="5"/><path class="cls-6" d="M1135.94,1300.18c-7.77-56.58,1.9-127.58,2-128.29l.08-.55.3-.46c41.92-65,41-85.1,38.77-133.65-.3-6.57-.62-13.36-.86-21-1.79-55.42,13.7-71.9,33.3-92.76,3.79-4,7.71-8.2,11.67-12.85,21.2-24.89,21.8-69.6,21.72-77.71l-47.17-31,2.75-4.18,49.35,32.41.05,1.29c.08,2.18,1.61,53.64-22.89,82.41-4,4.74-8,9-11.83,13-18.82,20-33.68,35.83-32,89.17.24,7.56.55,14.33.85,20.89,2.28,49.57,3.22,70.16-39.26,136.12-.87,6.67-9.24,73.09-1.92,126.38Z"/><rect class="cls-6" x="1214.33" y="804.2" width="5" height="64.75" transform="translate(-135.94 1428.64) rotate(-58.15)"/><path class="cls-6" d="M1041.64,969l-4.45-2.28c6-11.71,5.55-36.9,5.3-52l-.06-3.52c-.23-16.36-.94-66.06,36-88.73,31.39-19.26,36.48-64.74,37.13-72.55l-37.51-34.39,3.38-3.68,39.26,36,0,1.17c-.11,2.25-3.14,55.36-39.6,77.72-34.52,21.18-33.84,68.75-33.62,84.38l.06,3.53C1047.77,931.2,1048.19,956.18,1041.64,969Z"/><rect class="cls-6" x="1089.77" y="723.1" width="5" height="59.8" transform="translate(-208.21 1015.3) rotate(-45.99)"/><path class="cls-6" d="M857,1662.58c-2.39,0-4.77,0-7.13,0l0-4q5.94.06,12,0l0,4Zm16.94-.24-.11-4c4-.12,8-.27,12-.46l.2,4C882,1662.08,878,1662.23,874,1662.34Zm-36.11-.06c-4-.12-8-.29-12-.49l.2-4c4,.2,8,.36,12,.48Zm60.16-1.09-.27-4c4-.27,8-.58,11.93-.93l.35,4C906.07,1660.61,902,1660.92,898,1661.19Zm-84.21-.11c-4-.28-8-.59-12-.94l.35-4c4,.35,8,.66,11.93.94Zm108.2-2-.43-4c4-.43,8-.91,11.87-1.42l.52,4C930,1658.15,926,1658.63,922,1659.07Zm-132.18-.1c-4-.42-8-.89-12-1.38l.49-4c3.94.49,7.94,1,11.89,1.37ZM766,1656c-4-.56-8-1.18-11.91-1.81l.64-4c3.92.63,7.9,1.24,11.83,1.8Zm179.95,0-.6-4c3.9-.59,7.88-1.23,11.8-1.91l.69,3.94C953.83,1654.71,949.83,1655.36,945.9,1656Zm-203.72-3.82c-3.93-.71-7.91-1.46-11.83-2.24l.78-3.92c3.89.77,7.85,1.52,11.76,2.22Zm227.45-.29-.77-3.93c3.89-.76,7.83-1.57,11.71-2.41l.85,3.91C977.51,1650.27,973.55,1651.09,969.63,1651.85Zm-251.07-4.4c-3.89-.84-7.84-1.73-11.74-2.65l.91-3.89c3.89.91,7.81,1.8,11.68,2.63Zm274.6-.71-.93-3.89c3.87-.93,7.77-1.91,11.6-2.91l1,3.87C1001,1644.82,997.06,1645.81,993.16,1646.74Zm-298-4.79c-3.87-1-7.79-2-11.65-3.06l1-3.86c3.84,1,7.74,2.07,11.58,3Zm321.34-1.32-1.1-3.85c3.81-1.09,7.67-2.23,11.46-3.4l1.18,3.82C1024.18,1638.38,1020.3,1639.53,1016.46,1640.63Zm-344.58-5c-3.82-1.11-7.7-2.27-11.53-3.46l1.18-3.82c3.81,1.18,7.66,2.33,11.47,3.44Zm367.59-2.11-1.27-3.79c3.78-1.26,7.58-2.57,11.31-3.9l1.34,3.77C1047.1,1630.94,1043.27,1632.26,1039.47,1633.52Zm-390.59-5c-3.82-1.26-7.66-2.56-11.41-3.87l1.32-3.77c3.73,1.3,7.54,2.59,11.33,3.84Zm413.27-3.07-1.42-3.74c3.7-1.41,7.45-2.88,11.12-4.37l1.51,3.7C1069.65,1622.53,1065.88,1624,1062.15,1625.44Zm-436-4.87c-3.78-1.39-7.57-2.84-11.26-4.28l1.46-3.73c3.67,1.44,7.43,2.87,11.19,4.26Zm458.34-4.18-1.59-3.67c3.63-1.56,7.31-3.19,10.94-4.85l1.65,3.64C1091.82,1613.18,1088.11,1614.82,1084.47,1616.39Zm-480.78-4.61c-3.78-1.57-7.51-3.16-11.09-4.74l1.62-3.66c3.54,1.56,7.25,3.15,11,4.71Zm502.69-5.38-1.74-3.6c3.58-1.72,7.19-3.51,10.72-5.3l1.81,3.57C1113.62,1602.87,1110,1604.67,1106.38,1606.4ZM581.62,1602c-7-3.32-10.73-5.33-10.88-5.41l1.9-3.52s3.79,2,10.69,5.31Zm546.23-6.52L1126,1592c3.48-1.86,7-3.79,10.49-5.73l2,3.49C1134.91,1591.69,1131.36,1593.64,1127.85,1595.51Zm21-11.77-2-3.44c3.41-2,6.86-4.08,10.25-6.16l2.09,3.4C1155.76,1579.64,1152.29,1581.73,1148.86,1583.74Zm20.51-12.6-2.16-3.37c3.34-2.15,6.71-4.35,10-6.56l2.23,3.33C1176.12,1566.75,1172.74,1569,1169.37,1571.14Zm20-13.4-2.3-3.28q3.45-2.4,6.9-4.88l2.33,3.25Q1192.84,1555.32,1189.37,1557.74Z"/><path class="cls-9" d="M897.58,572.31H762.67a6.74,6.74,0,0,0-6.74,6.75v83a6.74,6.74,0,0,0,6.74,6.75h43.15l25.12,28.62,23.55-28.62h43.09a6.75,6.75,0,0,0,6.75-6.75v-83A6.75,6.75,0,0,0,897.58,572.31Z"/><path class="cls-6" d="M858.19,603c-10.79-17.26-28.06-.14-28.06-.14s-17.28-17.12-28.07.14,28.05,46,28.07,46h0S869,620.29,858.19,603Z"/><path class="cls-9" d="M1694.77,325.18h-97.13a4.87,4.87,0,0,0-4.86,4.86v59.77a4.86,4.86,0,0,0,4.86,4.85h31.06l18.09,20.61,17-20.61h31a4.86,4.86,0,0,0,4.86-4.85V330A4.87,4.87,0,0,0,1694.77,325.18Z"/><path class="cls-6" d="M1666.41,347.31c-7.77-12.43-20.2-.1-20.21-.1s-12.43-12.33-20.2.1,20.19,33.14,20.2,33.15h0S1674.18,359.73,1666.41,347.31Z"/><polyline class="cls-6" points="1438.98 481.21 1421.75 477.3 1399.04 419.35 1380.24 419.35 1380.24 470.49 1332.47 460.85 1335.6 554.17 1446.03 558.75"/><rect class="cls-10" x="1433.2" y="468.92" width="35.65" height="103.39"/><rect class="cls-12" x="1282.57" y="442.75" width="8.49" height="44.31" transform="translate(557.37 1622.46) rotate(-77.65)"/><rect class="cls-12" x="1294.94" y="417.55" width="8.5" height="42.94" transform="translate(255.52 1328.61) rotate(-59.11)"/><path class="cls-12" d="M1330.58,436.86a4.21,4.21,0,0,1-3.31-1.58l-10-12.4a4.25,4.25,0,0,1,6.61-5.33l10,12.39a4.25,4.25,0,0,1-3.3,6.92Zm-23.34-28.93a4.24,4.24,0,0,1-3.31-1.58l-4.64-5.75a4.25,4.25,0,0,1,6.62-5.33l4.64,5.75a4.24,4.24,0,0,1-3.31,6.91Z"/><polyline class="cls-6" points="589.62 759.85 578.34 757.29 563.47 719.35 551.17 719.35 551.17 752.83 519.89 746.52 521.94 807.61 594.23 810.61"/><rect class="cls-10" x="585.83" y="751.8" width="23.34" height="67.68"/><rect class="cls-12" x="487.22" y="734.67" width="5.56" height="29.01" transform="translate(-346.67 1067.52) rotate(-77.64)"/><rect class="cls-12" x="495.32" y="718.17" width="5.56" height="28.11" transform="translate(-385.98 783.82) rotate(-59.11)"/><path class="cls-12" d="M518.65,730.81a2.77,2.77,0,0,1-2.16-1l-6.55-8.12a2.78,2.78,0,0,1,4.33-3.49l6.54,8.11a2.78,2.78,0,0,1-2.16,4.53Zm-15.27-18.94a2.79,2.79,0,0,1-2.17-1l-3-3.77a2.78,2.78,0,0,1,4.33-3.49l3,3.77a2.77,2.77,0,0,1-2.16,4.52Z"/><rect class="cls-6" x="1784.74" y="468.92" width="131.57" height="92.38"/><polygon class="cls-3" points="1850.53 518.78 1783.02 471.38 1786.47 466.47 1850.53 511.45 1914.59 466.47 1918.04 471.38 1850.53 518.78"/><rect class="cls-3" x="1772.07" y="529.94" width="76.13" height="6" transform="translate(205.62 1525.99) rotate(-48.16)"/><rect class="cls-3" x="1887.92" y="494.88" width="6" height="76.14" transform="translate(126.71 1397.33) rotate(-41.84)"/><polygon class="cls-12" points="1068.58 180.37 843.57 158.9 852.78 259.45 1022.04 259.45 1044.58 289.27 1039.22 259.45 1068.58 259.45 1068.58 180.37"/><polygon class="cls-12" points="1527.19 727.11 1722.08 708.51 1714.1 795.61 1567.49 795.61 1547.97 821.44 1552.62 795.61 1527.19 795.61 1527.19 727.11"/><g class="cls-17"><path class="cls-18" d="M2397,704.17c33.26,128.4-43.86,259.45-172.26,292.71S1965.27,953,1932,824.62s43.86-259.44,172.25-292.7S2363.71,575.78,2397,704.17Z"/><path class="cls-6" d="M2176.83,812c-98.44,25.5-192.25,44.73-264.14,54.14-35.11,4.59-63.13,6.6-83.3,6-23.39-.74-35.3-5-37.49-13.45-2.46-9.52,8.34-20.51,34-34.57,22.6-12.39,56.63-27,99-42.5l.81,8.82c-41.38,15.14-73.81,29.12-95.73,41.13-30.93,17-30.06,24.22-29.86,25s5.17,15.1,111.45,1.19c71.56-9.36,165-28.52,263.12-53.93s189.1-54,256.2-80.6c99.67-39.44,97-54.54,96.86-55.16s-3-7.49-39.19-7.19c-25.45.22-59.1,3.51-102.7,10.37l-3.58-8.1c44-6.93,80.35-10.54,106.21-10.76,29.94-.25,45,4,47.48,13.55,2.19,8.43-6.15,18-26.24,30-17.32,10.35-42.79,22.2-75.71,35.23C2366.61,757.78,2275.27,786.52,2176.83,812Z"/><path class="cls-19" d="M669.76,384.69C634,498.59,512.74,562,398.84,526.25s-177.28-157-141.55-270.93S414.31,78,528.21,113.77,705.49,270.79,669.76,384.69Z"/><path class="cls-6" d="M450.27,362.25C363,334.86,282.14,304.89,222.75,277.84c-29-13.2-51.35-25-66.45-35.1-17.52-11.7-24.58-20.64-22.23-28.12,2.65-8.45,16.13-11.69,42.43-10.21,23.16,1.3,56.11,6.35,95.85,14.68l-3.59,7.11c-38.8-8.13-70.23-12.9-92.69-14.16-31.69-1.78-34.49,4.18-34.71,4.87s-3.23,14,84.56,54C285,297.8,365.52,327.66,452.56,355s170.16,48.76,234.06,60.42c94.9,17.33,100.07,4.54,100.24,4s1.28-7.14-26.51-24.14c-19.54-12-46.81-25.46-83.38-41l1.13-7.89C715,362,744.48,376.55,764.34,388.7c23,14.06,32.46,24.53,29.82,32.95-2.35,7.48-13.25,10.78-34.31,10.39-18.16-.34-43.26-3.42-74.6-9.14C621.05,411.18,537.6,389.64,450.27,362.25Z"/></g><path class="cls-20" d="M458,2250.3c-84.24-55.14-150-117.73-195.58-186-40.4-60.6-65.39-126.42-74.27-195.63-23.11-180.17,67-352.61,151.18-445.53,168.31-185.8,112.07-435,14.23-766.83C337,600.13,328,544.79,326.68,491.8c-1.24-50.74,4.61-99.71,17.39-145.54,24.39-87.47,74.28-163.66,144.29-220.36C568.78,60.78,671.3,23.7,784.83,18.67,904.41,13.38,1030.47,44.61,1149.4,109c184.38,99.81,337.25,99.91,548.83,100.05,65.68,0,140.12.09,222.56,3.17,95.78,3.58,176.6,23,240.22,57.71,57.23,31.23,100.87,74.9,129.69,129.81,37.43,71.3,49.41,161.2,34.65,260-12.58,84.25-44.91,172-88.69,240.84-131.15,206.13-204.24,367-32,711.24,38.88,77.69,57.06,159.6,54,243.47-2.41,67-18.3,135.44-47.23,203.31C2162.27,2174,2091.27,2249,2090.56,2249.72l-5.78-5.53c.7-.73,70.83-74.84,119.44-189,44.75-105.09,79.92-266.71-6.7-439.81-41.75-83.44-69.85-157-85.9-224.9-15.2-64.31-19.52-123.48-13.21-180.87,11.81-107.38,59.07-199.51,131.5-313.35,85.07-133.69,130.83-345.9,53.71-492.81C2223.33,288.6,2101.16,227,1920.49,220.2c-82.29-3.08-156.65-3.13-222.26-3.17-106.84-.07-199.11-.13-287-12.75C1316,190.62,1231.6,162.58,1145.59,116,915.37-8.6,659.36-2.28,493.39,132.12,346.65,251,298.49,441.18,361.25,654,414.12,833.36,450.13,978.36,454,1103.1c4.18,135.5-30.36,238.89-108.71,325.38-83,91.66-171.94,261.67-149.17,439.15,18.74,146.09,108.33,272.59,266.29,376Z"/><path class="cls-21" d="M374.86,2248.6H21.68s-63.85-362,176.45-362S374.86,2248.6,374.86,2248.6Z"/><path class="cls-20" d="M307.69,1966.52s1.87-235.88-227.92-196.44C53.5,1774.6,32.93,1787.16,0,1799.5c0,0,57,17.64,85.47,72.06S157.64,2057.69,307.69,1966.52Z"/><path class="cls-10" d="M0,1799.5s100.41-42.13,122.06,41.8,5.41,118.88,46.7,144.71,106.62,2.87,138.93-19.49c0,0,1.3-71.46-35.76-126.83C229.15,1775.77,139.13,1730.69,0,1799.5Z"/><path class="cls-3" d="M328.15,2076.48c-7-101-59.84-162.36-102.9-196-46.8-36.58-92.58-49.38-93-49.5l1.58-5.79c.47.13,47.23,13.16,95,50.42,28.06,21.89,51,47.76,68.2,76.88,21.5,36.4,34,78,37.18,123.59Z"/><path class="cls-4" d="M446.3,1929.58c-18.31,41.58-100.95,57.58-137.15,27-62.77-53,6.15-121.46-30.6-159.24s-49.68-60.5-25.29-129.87c29.51-83.87-129.63-220.9,3.27-151.37s67.15,101,122.67,145.07c60.5,48.07,35.57,87.07,32.26,135.38S473.54,1867.74,446.3,1929.58Z"/><path class="cls-3" d="M392.19,2063.87l-6-.55c.07-.82,7.37-83.18-4.23-185.41-10.68-94.14-40-224.88-119.15-313.09l4.46-4c35.46,39.53,64.08,90.61,85.08,151.83,16.76,48.87,28.73,104.29,35.58,164.71C399.62,1980.17,392.27,2063,392.19,2063.87Z"/><path class="cls-22" d="M517.84,2248.6H277.63s-43.43-246.19,120-246.19S517.84,2248.6,517.84,2248.6Z"/><path class="cls-12" d="M464.11,2209.69c0,22.27,26.37,40.33,58.91,40.33s58.91-18.06,58.91-40.33-26.38-40.33-58.91-40.33S464.11,2187.42,464.11,2209.69Z"/><path class="cls-23" d="M1881.43,2249.79h727.18s-86.68-56.23-160.55-175.26C2308.83,1850.18,2024.4,1818.62,1881.43,2249.79Z"/><path class="cls-12" d="M2298.37,1722.89c54.31,29.39-64.73,95.54-128.59,213.57s-71.92,230.92-126.23,201.53-23-136.53,40.85-254.58S2244.06,1693.51,2298.37,1722.89Z"/><path class="cls-3" d="M2035.42,2249.62l-6,0c0-.93.94-94.69,30.17-202.87,17.19-63.6,40.65-119.7,69.73-166.74,36.44-58.94,81.85-103.75,135-133.2l2.91,5.25c-118.33,65.58-175,197.23-201.79,296.12C2036.37,2155.59,2035.42,2248.69,2035.42,2249.62Z"/><path class="cls-9" d="M2452.31,1628.3C2516.38,1663,2376,1741,2300.63,1880.23s-119.94,248.62-148.9,237.72c-35.9-13.52-27.15-161.06,48.18-300.3S2388.25,1593.64,2452.31,1628.3Z"/><path class="cls-3" d="M2141.6,2249.62l-6,0c0-1.1,1.11-111.63,35.58-239.17,20.26-75,47.91-141.09,82.19-196.54,42.93-69.44,96.43-122.24,159-156.93l2.91,5.25c-139.79,77.47-206.76,233-238.33,349.79C2142.71,2138.77,2141.61,2248.53,2141.6,2249.62Z"/><path class="cls-4" d="M2219.44,2131.17c16.19,36.74,89.21,50.88,121.21,23.87,55.47-46.81-5.44-107.33,27-140.72s43.91-53.47,22.35-114.77c-26.07-74.12,114.56-195.21-2.88-133.77S2327.81,1855,2278.74,1894c-53.46,42.47-31.44,76.94-28.51,119.63S2195.37,2076.51,2219.44,2131.17Z"/><path class="cls-3" d="M2266.91,2249.87c-.07-.73-6.56-74,3.74-164.9,6-53.42,16.64-102.42,31.46-145.64,18.57-54.14,43.89-99.32,75.26-134.29l4.46,4C2312,1887,2286,2002.47,2276.61,2085.65c-10.23,90.29-3.79,162.95-3.73,163.68Z"/><path class="cls-12" d="M2371.89,2250.56h125.48s22.68-128.6-62.69-128.6S2371.89,2250.56,2371.89,2250.56Z"/><path class="cls-6" d="M567.34,925.49c-2,0-3.93,0-5.88-.09l.12-4c3.95.12,8,.12,11.87,0l.13,4C571.52,925.45,569.42,925.49,567.34,925.49Zm-18-.82c-4-.36-8-.84-12-1.43l.58-4c4,.58,7.92,1.05,11.81,1.4Zm36.33-.09-.4-4c4-.39,7.9-.92,11.75-1.58l.67,3.94C593.77,923.63,589.73,924.18,585.69,924.58Zm-60.29-3.42c-3.9-.78-7.87-1.68-11.8-2.68l1-3.88c3.87,1,7.78,1.87,11.61,2.64Zm84.2-.68-1-3.88c3.83-.94,7.67-2,11.39-3.26l1.24,3.81C617.45,918.39,613.53,919.52,609.6,920.48ZM502,915.23c-3.82-1.16-7.68-2.43-11.49-3.77l1.33-3.78c3.75,1.33,7.56,2.58,11.32,3.72ZM632.67,913l-1.52-3.7c3.63-1.49,7.25-3.15,10.78-4.91l1.79,3.57C640.11,909.72,636.39,911.42,632.67,913Zm-153.53-5.77c-3.72-1.5-7.46-3.1-11.12-4.75l1.65-3.65c3.61,1.64,7.3,3.21,11,4.69Zm175.22-5.1-2-3.43c3.35-2,6.7-4.17,9.95-6.43l2.29,3.28C661.23,897.82,657.8,900,654.36,902.08Zm-197.25-4.89c-3.73-1.89-7.32-3.82-10.67-5.74l2-3.47c3.29,1.88,6.82,3.78,10.49,5.64Zm217.16-9-2.5-3.12c3-2.44,6.08-5,9-7.72l2.69,3C680.48,883.1,677.38,885.75,674.27,888.24Zm17.91-16.31-2.87-2.79c2.72-2.79,5.42-5.73,8.05-8.75l3,2.63C697.7,866.09,695,869.09,692.18,871.93Zm111.47-17.26c-1.58,0-3.21,0-4.84-.16l.26-4a66,66,0,0,0,11.63-.23l.44,4A65.72,65.72,0,0,1,803.65,854.67Zm-95.58-1-3.15-2.47c2.4-3.06,4.79-6.27,7.11-9.54l3.26,2.31C712.94,847.31,710.51,850.57,708.07,853.69Zm78.59-.91a100.89,100.89,0,0,1-11.77-3.34l1.32-3.78a95.4,95.4,0,0,0,11.3,3.21Zm36.59-1.13-1.25-3.8A51.22,51.22,0,0,0,832.46,843l2.08,3.42A54.84,54.84,0,0,1,823.25,851.65Zm-59.64-6.84c-3.58-1.68-7.2-3.6-10.77-5.69l2-3.45c3.46,2,7,3.89,10.44,5.52Zm80.74-6L841.56,836a57.14,57.14,0,0,0,7.43-8.88l3.31,2.26A62.54,62.54,0,0,1,844.35,838.84ZM722.06,834l-3.32-2.23c2.28-3.41,4.59-6.74,6.87-9.91l3.25,2.33C726.61,827.35,724.32,830.65,722.06,834Zm20.55-1.47c-3.25-2.27-6.51-4.72-9.7-7.3l2.52-3.11c3.11,2.52,6.3,4.92,9.47,7.13Zm115.73-14.09L854.6,817a25.38,25.38,0,0,0,1.51-9c0-.64,0-1.28-.06-1.94l4-.22c0,.72.06,1.45.06,2.16A29.47,29.47,0,0,1,858.34,818.47Zm-134.6-1.14c-2.93-2.7-5.84-5.55-8.66-8.48l2.88-2.77c2.77,2.87,5.62,5.67,8.49,8.31ZM736,814.66l-3.16-2.45c2.53-3.26,5.09-6.42,7.61-9.38l3,2.58C741,808.33,738.48,811.45,736,814.66Zm-29.06-14.77c-2.59-3-5.17-6.18-7.64-9.39l3.17-2.44c2.43,3.15,5,6.25,7.51,9.22Zm44.48-3.34-2.9-2.74c2.85-3,5.75-5.91,8.59-8.55l2.73,2.93C757,790.78,754.21,793.59,751.41,796.55Zm102.41-1.71A51.55,51.55,0,0,0,849,784.4l3.41-2.09a55.66,55.66,0,0,1,5.26,11.26ZM692.15,780.73c-2.28-3.27-4.51-6.67-6.66-10.1l3.4-2.12c2.1,3.38,4.31,6.72,6.54,9.94Zm76.65-.25-2.48-3.14a115.15,115.15,0,0,1,9.94-7.07l2.14,3.37A114.08,114.08,0,0,0,768.8,780.48Zm73.07-5.16a44.76,44.76,0,0,0-9-7.07l2-3.45a48.3,48.3,0,0,1,9.81,7.71ZM788.68,768,787,764.39a70,70,0,0,1,11.62-4.14l1,3.88A65.1,65.1,0,0,0,788.68,768Zm33.67-4.17A41.75,41.75,0,0,0,811,762.54l-.07-4A45.57,45.57,0,0,1,823.35,760Zm-143-3.63c-2-3.49-3.86-7.08-5.67-10.68l3.57-1.8c1.78,3.55,3.66,7.09,5.59,10.52Zm-10.87-21.59c-1.64-3.64-3.22-7.39-4.72-11.12l3.72-1.49c1.47,3.69,3,7.38,4.65,11Zm-9-22.43c-1.33-3.78-2.6-7.64-3.77-11.48l3.82-1.17c1.16,3.79,2.42,7.6,3.72,11.32Zm-7.08-23.09c-1-3.87-2-7.81-2.85-11.74l3.9-.87c.86,3.88,1.81,7.77,2.82,11.59Zm-5.25-23.57c-.71-3.93-1.37-7.93-1.95-11.91l4-.58c.57,3.94,1.22,7.89,1.93,11.77ZM1799.41,648c-4,0-8.1-.17-12.07-.37l.2-4c3.92.2,7.92.33,11.91.37Zm12.07-.1-.11-4c3.93-.11,7.94-.3,11.91-.56l.26,4C1819.52,647.61,1815.46,647.8,1811.48,647.92Zm-36.19-1.15c-4-.38-8-.85-12-1.4l.55-4c3.89.54,7.87,1,11.82,1.38Zm60.28-.43-.4-4c3.91-.4,7.9-.87,11.84-1.41l.55,4C1843.56,645.46,1839.53,645.94,1835.57,646.34Zm-1191.86-.68c-.42-4-.78-8-1.07-12l4-.28c.28,3.95.64,7.95,1.06,11.87Zm1107.65-2.23c-4-.74-7.95-1.58-11.83-2.5l.92-3.89c3.82.9,7.73,1.73,11.64,2.46Zm108.12-.35-.67-3.94c3.88-.66,7.82-1.4,11.73-2.19l.8,3.92C1867.39,641.67,1863.4,642.41,1859.48,643.08Zm23.64-4.78-.91-3.9q3.32-.78,6.67-1.62c1.64-.41,3.28-.84,4.91-1.27l1,3.86q-2.47.66-5,1.29C1887.6,637.23,1885.35,637.77,1883.12,638.3Zm-155.29-.46c-3.89-1.13-7.76-2.37-11.53-3.68l1.32-3.78c3.7,1.29,7.51,2.51,11.33,3.62Zm178.6-5.74-1.14-3.83c3.76-1.12,7.59-2.32,11.38-3.57l1.26,3.8C1914.1,629.76,1910.23,631,1906.43,632.1ZM1705,629.86c-3.75-1.54-7.47-3.2-11.06-4.93l1.73-3.61c3.53,1.7,7.18,3.33,10.85,4.84Zm-189.54-2.42-4.06,0,0-4,4,0c2.64,0,5.3,0,7.92-.07l.07,4C1520.79,627.41,1518.11,627.44,1515.45,627.44Zm-16.11-.26c-4-.13-8-.3-12-.52l.21-4c4,.21,8,.39,12,.51Zm36.14-.17-.17-4c4-.17,8-.4,11.92-.68l.29,4C1543.57,626.6,1539.52,626.83,1535.48,627Zm-60.19-1.13c-4-.3-8-.65-12-1l.39-4c4,.39,8,.73,11.91,1Zm84.24-.6-.4-4c4-.4,8-.87,11.85-1.39l.53,4C1567.6,624.4,1563.57,624.87,1559.53,625.28Zm369.79-.71-1.36-3.76c3.71-1.34,7.47-2.75,11.18-4.19l1.46,3.72C1936.85,621.8,1933.06,623.22,1929.32,624.57Zm-478-1c-3.94-.46-8-1-11.94-1.51l.54-4c3.95.54,7.95,1,11.87,1.5Zm132.13-1.51-.67-3.94c4-.67,7.9-1.41,11.72-2.21l.81,3.92C1591.45,620.63,1587.45,621.39,1583.45,622.06ZM642,621.6c-.14-4-.22-8.05-.24-12.07h4c0,4,.1,8,.24,11.93Zm785.49-1.26c-3.92-.61-7.92-1.26-11.88-1.94l.68-3.94c3.94.68,7.91,1.32,11.81,1.93Zm255.7-1c-3.55-2-7.05-4.08-10.39-6.24l2.17-3.36c3.27,2.11,6.69,4.17,10.17,6.11Zm-76.08-2.21-1-3.88c3.89-1,7.76-2,11.49-3.16l1.14,3.84C1615,615.06,1611,616.14,1607.09,617.13Zm-203.34-.87c-3.9-.74-7.87-1.53-11.81-2.35l.81-3.91c3.92.81,7.87,1.59,11.74,2.33Zm548-.43-1.55-3.69c3.64-1.53,7.32-3.13,11-4.76l1.63,3.65C1959.14,612.68,1955.42,614.29,1951.76,615.83Zm-571.58-4.45c-3.87-.87-7.81-1.78-11.72-2.72l.94-3.89c3.88.93,7.81,1.84,11.66,2.71Zm250.06-1.19-1.33-3.78c3.79-1.33,7.52-2.76,11.1-4.25l1.54,3.69C1637.9,607.37,1634.09,608.83,1630.24,610.19Zm32.57-4c-2.75-2.06-5.45-4.2-8-6.38-.73.36-1.45.73-2.19,1.08l-1.75-3.59c3.6-1.76,7.13-3.62,10.49-5.54l2,3.47c-1.53.87-3.1,1.74-4.69,2.59,2.13,1.76,4.33,3.49,6.58,5.17Zm310.92-.19-1.72-3.62c3.56-1.69,7.17-3.46,10.71-5.25l1.81,3.57C1981,602.49,1977.32,604.27,1973.73,606Zm-616.94-.23c-3.84-1-7.76-2-11.63-3.08l1-3.86c3.85,1,7.75,2.08,11.57,3.06Zm-23.22-6.32c-3.83-1.11-7.71-2.25-11.53-3.42l1.16-3.82c3.81,1.15,7.67,2.29,11.48,3.39Zm-687.66-1.86-4-.1v-.24c.13-4,.32-7.94.59-11.83l4,.27c-.26,3.85-.46,7.78-.58,11.69Zm1349.29-2.41-1.88-3.54c3.45-1.83,7-3.75,10.48-5.7l2,3.49C2002.22,591.39,1998.67,593.32,1995.2,595.17Zm-684.65-2.73c-3.84-1.24-7.68-2.53-11.41-3.84l1.33-3.77c3.7,1.3,7.5,2.58,11.31,3.81Zm333.93-2.17c-2.88-2.92-5.63-5.95-8.17-9l3.07-2.56c2.47,3,5.15,5.92,7.95,8.76Zm29.15-1.47-2.24-3.31c3.31-2.24,6.51-4.6,9.52-7l2.51,3.11C1680.32,584.08,1677,586.5,1673.63,588.8Zm-385.79-4.34c-3.77-1.44-7.53-2.94-11.19-4.46l1.54-3.69c3.62,1.5,7.34,3,11.08,4.41Zm728.37-1-2-3.45c3.41-2,6.86-4.06,10.27-6.14l2.09,3.42C2023.11,579.37,2019.63,581.45,2016.21,583.45Zm-750.61-8.24c-3.66-1.65-7.33-3.38-10.9-5.12l1.76-3.59c3.53,1.72,7.16,3.43,10.79,5.07Zm-618.06-1.39-4-.44c.44-4,1-8,1.57-12l4,.6C648.49,565.89,648,569.86,647.54,573.82Zm1045-.27-2.78-2.88a115.87,115.87,0,0,0,8.06-8.6l3.06,2.59C1698.31,567.7,1695.5,570.7,1692.55,573.55Zm-63.58-2a114.33,114.33,0,0,1-6.34-10.43l3.53-1.89a108.57,108.57,0,0,0,6.11,10.07Zm407.8-.62-2.15-3.38c3.32-2.1,6.7-4.3,10.05-6.51l2.2,3.34C2043.51,566.58,2040.11,568.79,2036.77,570.91Zm-792.8-6.3c-3.54-1.88-7.09-3.84-10.55-5.82l2-3.47c3.42,2,6.93,3.9,10.43,5.76Zm812.89-7-2.26-3.3c3.26-2.23,6.56-4.54,9.82-6.85l2.32,3.26C2063.46,553.07,2060.14,555.39,2056.86,557.64Zm-348.6-2.71-3.31-2.24a104.4,104.4,0,0,0,5.83-9.71l.19-.38,3.55,1.84-.2.4A109.09,109.09,0,0,1,1708.26,554.93Zm-485.19-2.33c-3.39-2.11-6.8-4.3-10.12-6.53l2.22-3.32c3.29,2.2,6.66,4.37,10,6.46Zm-571.94-2.31-3.92-.77c.79-4,1.67-7.93,2.62-11.8l3.89,1C652.78,542.49,651.91,546.39,651.13,550.29Zm966.39-.31a85.92,85.92,0,0,1-3.6-11.73l3.91-.89a80.62,80.62,0,0,0,3.42,11.18Zm459-6.28-2.37-3.22c3.18-2.34,6.41-4.75,9.6-7.17l2.42,3.19C2082.94,538.93,2079.69,541.36,2076.5,543.7Zm-873.45-4.5c-3.22-2.31-6.47-4.73-9.67-7.2l2.44-3.17c3.16,2.44,6.38,4.83,9.56,7.12Zm516-6.28-3.85-1.06a47.12,47.12,0,0,0,1.7-11.35l4,.09A50.56,50.56,0,0,1,1719.09,532.92Zm376.59-3.76-2.46-3.15c3.12-2.44,6.27-5,9.38-7.45l2.51,3.11C2102,524.19,2098.82,526.71,2095.68,529.16ZM656.85,527.21,653,526.06c1.15-3.86,2.42-7.72,3.75-11.48l3.77,1.33C659.23,519.61,658,523.41,656.85,527.21ZM1612.22,526c-.06-1.08-.09-2.16-.09-3.23a59.76,59.76,0,0,1,.7-9.14l4,.62a55.37,55.37,0,0,0-.65,8.52c0,1,0,2,.08,3ZM1184,524.5c-3-2.49-6.13-5.11-9.2-7.77l2.63-3c3,2.64,6.1,5.23,9.11,7.7Zm930.48-10.45-2.55-3.08c3-2.52,6.13-5.12,9.17-7.71l2.59,3C2120.59,508.91,2117.49,511.51,2114.43,514.05Zm-398.73-4.9a45.14,45.14,0,0,0-4.16-10.68l3.52-1.91a49.18,49.18,0,0,1,4.52,11.63Zm-549.93-.43c-2.85-2.6-5.8-5.37-8.79-8.21l2.76-2.9c3,2.83,5.9,5.57,8.73,8.16Zm-501-3.9-3.69-1.53c1.54-3.72,3.2-7.44,4.92-11.05l3.61,1.73C667.94,497.52,666.32,501.17,664.8,504.82Zm955-1.63-3.7-1.51a51,51,0,0,1,2.31-4.9c1.12-2.08,2.33-4.09,3.6-6l3.32,2.24c-1.2,1.77-2.34,3.67-3.4,5.63A49,49,0,0,0,1619.84,503.19Zm512.91-4.76-2.64-3c3-2.61,6-5.29,9-8l2.67,3C2138.77,493.12,2135.75,495.81,2132.75,498.43Zm-984.4-6.3q-4.3-4.23-8.51-8.48l2.84-2.82q4.2,4.23,8.48,8.46Zm556.54-3.05a53.67,53.67,0,0,0-8.6-7.7l2.34-3.25a58,58,0,0,1,9.24,8.28Zm-72.13-4.93-2.78-2.87a51.61,51.61,0,0,1,9.9-7.55l2,3.45A48,48,0,0,0,1632.76,484.15Zm-957.71-.75-3.51-1.92c1.93-3.53,4-7.05,6.1-10.45l3.4,2.1C679,476.48,677,479.93,675.05,483.4Zm1475.6-1.07-2.72-2.94c2.91-2.69,5.86-5.44,8.76-8.19l2.75,2.9C2156.53,476.86,2153.57,479.63,2150.65,482.33Zm-464.39-6.7a54,54,0,0,0-11-3.54l.81-3.92a58.47,58.47,0,0,1,11.81,3.8Zm-554.85-.52-3-3-5.46-5.55,2.85-2.81,5.46,5.56,3,3Zm521-2.39-1.08-3.86A50.26,50.26,0,0,1,1663.7,467l.09,4A46.18,46.18,0,0,0,1652.45,472.72Zm515.68-7-2.79-2.87c2.84-2.76,5.71-5.59,8.55-8.41l2.82,2.84C2173.87,460.16,2171,463,2168.13,465.77ZM687.58,463.22l-3.28-2.29c2.3-3.29,4.72-6.56,7.21-9.72l3.14,2.47C692.22,456.78,689.83,460,687.58,463.22Zm427-5.2c-3.07-3.06-5.85-5.81-8.51-8.4l2.79-2.87c2.68,2.61,5.47,5.37,8.55,8.45Zm1070.63-9.24-2.86-2.8c2.79-2.85,5.6-5.75,8.34-8.62l2.89,2.76C2190.81,443,2188,445.91,2185.19,448.78ZM702.25,444.54l-3-2.64c2.65-3,5.42-6,8.24-8.86l2.85,2.8C707.57,438.66,704.85,441.59,702.25,444.54Zm395.18-3.16c-3-2.85-5.93-5.48-8.82-8l2.66-3c2.91,2.58,5.82,5.23,8.89,8.11Zm1104.39-10-2.92-2.73c2.74-2.94,5.47-5.91,8.12-8.83l3,2.69C2207.32,425.42,2204.58,428.4,2201.82,431.36ZM718.88,427.58l-2.7-2.95c3-2.7,6-5.37,9.13-7.93l2.55,3.08C724.8,422.3,721.78,424.92,718.88,427.58Zm360.69-2c-3.09-2.58-6.21-5.09-9.28-7.46l2.45-3.16c3.1,2.4,6.26,4.94,9.4,7.55ZM2218,413.51l-3-2.65c2.68-3,5.33-6.09,7.87-9.06l3,2.61C2223.38,407.39,2220.72,410.45,2218,413.51ZM737.23,412.46l-2.38-3.21c3.2-2.38,6.53-4.71,9.87-6.94l2.22,3.33C743.65,407.83,740.38,410.12,737.23,412.46ZM1060.74,411c-3.25-2.32-6.56-4.57-9.83-6.7l2.18-3.35c3.32,2.16,6.68,4.44,10,6.79ZM757,399.29l-2.05-3.43c3.42-2.05,7-4.05,10.51-6l1.89,3.53C763.83,395.3,760.35,397.27,757,399.29Zm283.82-1.24c-3.41-2-6.9-4-10.38-5.8l1.88-3.54c3.53,1.88,7.07,3.86,10.53,5.9Zm1192.91-2.88-3.08-2.55c4.88-5.91,7.51-9.32,7.54-9.35l3.17,2.43S2238.65,389.2,2233.71,395.17ZM777.93,388.05l-1.73-3.61c3.61-1.72,7.31-3.39,11-5l1.56,3.68C785.13,384.71,781.48,386.35,777.93,388.05Zm241.88-1.15c-3.54-1.69-7.19-3.33-10.85-4.88l1.57-3.68c3.7,1.57,7.4,3.24,11,5Zm-220-8.16-1.4-3.74c3.74-1.4,7.57-2.75,11.38-4l1.25,3.8C807.28,376,803.51,377.36,799.82,378.74Zm198.1-1.15c-3.66-1.38-7.43-2.72-11.22-4l1.27-3.8c3.83,1.28,7.65,2.64,11.36,4Zm-175.49-6.25-1.09-3.85c3.84-1.09,7.77-2.11,11.67-3l.93,3.89C830.09,369.26,826.22,370.27,822.43,371.34Zm152.9-1.3-3.37-1c-2.66-.75-5.39-1.47-8.12-2.12l.94-3.89c2.78.67,5.56,1.4,8.27,2.16l3.41,1ZM845.59,365.8l-.78-3.93c3.93-.77,7.93-1.48,11.9-2.1l.62,4C853.41,364.33,849.46,365,845.59,365.8Zm106.62-1.33c-3.84-.71-7.79-1.35-11.75-1.89l.54-4c4,.55,8,1.19,11.94,1.92Zm-83.07-2.36-.46-4c4-.46,8-.85,12-1.16l.31,4C877.08,361.27,873.08,361.65,869.14,362.11Zm59.49-.87c-3.9-.35-7.9-.63-11.88-.81l.19-4c4,.19,8.09.47,12,.83Zm-35.71-.93-.14-4c3.54-.13,7.12-.19,10.64-.19h1.44l0,4h-1.42C899.94,360.12,896.41,360.18,892.92,360.31Z"/><rect class="cls-6" x="972.5" y="399.3" width="131.57" height="92.38"/><polygon class="cls-3" points="1038.29 449.15 970.78 401.75 974.23 396.84 1038.29 441.82 1102.35 396.84 1105.8 401.75 1038.29 449.15"/><rect class="cls-3" x="959.83" y="460.32" width="76.13" height="6" transform="translate(-12.98 897.59) rotate(-48.15)"/><rect class="cls-3" x="1075.68" y="425.25" width="6" height="76.13" transform="translate(-33.98 837.75) rotate(-41.84)"/></g></g></svg>