<svg xmlns="http://www.w3.org/2000/svg" viewBox="0 0 310.67 322"><defs><style>.cls-1{fill:#ff8cac;}.cls-2{fill:#ff6c6c;}.cls-3{fill:#fff;}</style></defs><g id="Layer_2" data-name="Layer 2"><g id="Illustrations"><polygon class="cls-1" points="303.67 226.5 281.3 214.4 282.73 211.76 299.07 220.59 294.08 201.1 306.48 202.11 307.69 193.15 310.67 193.55 309.07 205.33 298.03 204.43 303.67 226.5"/><path class="cls-1" d="M256.88,104a7,7,0,1,1,7-7A7,7,0,0,1,256.88,104Zm0-11a4,4,0,1,0,4,4A4,4,0,0,0,256.88,93Z"/><path class="cls-1" d="M12.75,171.47,4.6,153.32,26.16,156ZM9.53,157l4,9,6.64-7.64Z"/><rect class="cls-2" x="107.88" y="81" width="39" height="32"/><rect class="cls-2" x="107.88" y="154" width="39" height="106"/><polygon class="cls-2" points="227.88 221.93 193.88 239.06 193.88 113 227.88 113 227.88 221.93"/><polygon class="cls-3" points="174.71 280 13.88 280 13.88 258 182.16 258 182.16 261 16.88 261 16.88 277 174.71 277 174.71 280"/><polygon class="cls-3" points="306.88 280 274.88 280 274.88 277 303.88 277 303.88 260 285.88 260 285.88 257 306.88 257 306.88 280"/><path class="cls-3" d="M60.88,299.8c-5.52,0-10-4.22-10-9.41V283h3v7.39c0,3.53,3.14,6.41,7,6.41s7-2.88,7-6.41V283h3v7.39C70.88,295.58,66.39,299.8,60.88,299.8Z"/><path class="cls-3" d="M70.27,260.9l-32.4-6.47L69.05,98.27l32.39,6.46ZM41.4,252.08l26.51,5.29,30-150.28L71.4,101.8Z"/><polygon class="cls-3" points="195.88 238 192.88 238 192.88 111 227.88 111 227.88 226 224.88 226 224.88 114 195.88 114 195.88 238"/><polygon class="cls-3" points="274.88 255 271.88 255 271.88 133 227.88 133 227.88 225 224.88 225 224.88 130 274.88 130 274.88 255"/><path class="cls-3" d="M149.88,260h-50V71h50Zm-47-3h44V74h-44Z"/><polygon class="cls-3" points="149.88 259 146.88 259 146.88 71 195.88 71 195.88 102 192.88 102 192.88 74 149.88 74 149.88 259"/><path class="cls-3" d="M228.38,322a49.5,49.5,0,1,1,49.5-49.5A49.56,49.56,0,0,1,228.38,322Zm0-96a46.5,46.5,0,1,0,46.5,46.5A46.55,46.55,0,0,0,228.38,226Z"/><path class="cls-2" d="M247.62,253.41a17.56,17.56,0,0,0-20.11,2.23,17.55,17.55,0,0,0-28.36,18.46c2.9,12.49,26.07,27.15,27.06,27.77a2.43,2.43,0,0,0,2.61,0c1-.62,24.14-15.28,27.05-27.77a17.53,17.53,0,0,0-8.25-20.69Z"/><rect class="cls-3" x="98.88" y="111" width="49.5" height="3"/><rect class="cls-3" x="101.88" y="145" width="46.5" height="3"/><path class="cls-3" d="M171.88,118a10,10,0,1,1,10-10A10,10,0,0,1,171.88,118Zm0-17a7,7,0,1,0,7,7A7,7,0,0,0,171.88,101Z"/><path class="cls-3" d="M171.88,244a10,10,0,1,1,10-10A10,10,0,0,1,171.88,244Zm0-17a7,7,0,1,0,7,7A7,7,0,0,0,171.88,227Z"/><path class="cls-3" d="M249.88,194c-8.28,0-15-7.85-15-17.5s6.72-17.5,15-17.5,15,7.85,15,17.5S258.15,194,249.88,194Zm0-32c-6.62,0-12,6.5-12,14.5s5.38,14.5,12,14.5,12-6.5,12-14.5S256.49,162,249.88,162Z"/><rect class="cls-3" x="231.88" y="145" width="41" height="3"/><rect class="cls-3" x="231.88" y="204" width="41" height="3"/><rect class="cls-3" x="168.88" y="131" width="3" height="74"/><rect class="cls-3" x="112.88" y="164" width="20" height="3"/><rect class="cls-3" x="112.88" y="179" width="20" height="3"/><rect class="cls-3" x="72.38" y="133.65" width="3" height="25.28" transform="translate(-83.92 190.54) rotate(-78.87)"/><rect class="cls-3" x="66.93" y="163.06" width="3" height="25.31" transform="translate(-117.19 208.94) rotate(-78.87)"/><rect class="cls-3" x="83.88" y="297" width="104" height="3"/><path class="cls-1" d="M243.59,68.33A59,59,0,0,1,191,36.76l-.36-.7.36-.69a59.62,59.62,0,0,1,105.23,0l.37.69-.37.7A59,59,0,0,1,243.59,68.33ZM194,36.06a56.64,56.64,0,0,0,99.18,0,56.64,56.64,0,0,0-99.18,0Z"/><path class="cls-1" d="M244,68.22a31.76,31.76,0,1,1,31.67-31.76A31.75,31.75,0,0,1,244,68.22ZM244,7.7a28.76,28.76,0,1,0,28.67,28.76A28.75,28.75,0,0,0,244,7.7Z"/><path class="cls-3" d="M243.59,52.26a16.2,16.2,0,1,1,16-16.2A16.13,16.13,0,0,1,243.59,52.26Zm0-29.39a13.2,13.2,0,1,0,13,13.19A13.12,13.12,0,0,0,243.59,22.87Z"/><rect class="cls-1" x="40.88" y="98" width="20" height="3"/><path class="cls-1" d="M51.88,64H44.42a7.83,7.83,0,0,1-7.78-6.45,7.67,7.67,0,0,1,8.79-8.79,7.84,7.84,0,0,1,6.45,7.79ZM44.21,51.67a4.66,4.66,0,0,0-4.61,5.42A4.81,4.81,0,0,0,44.42,61h4.46V56.55A4.8,4.8,0,0,0,45,51.73,5,5,0,0,0,44.21,51.67Z"/><path class="cls-1" d="M64.33,64H56.88V56.55a7.83,7.83,0,0,1,6.44-7.79,7.67,7.67,0,0,1,8.79,8.79A7.83,7.83,0,0,1,64.33,64Zm-4.45-3h4.45a4.81,4.81,0,0,0,4.82-3.91,4.67,4.67,0,0,0-5.37-5.36,4.8,4.8,0,0,0-3.9,4.82Z"/><rect class="cls-1" x="56.88" y="63" width="3" height="26"/><rect class="cls-1" x="48.88" y="62" width="3" height="28"/><path class="cls-1" d="M53.91,118.57a8.38,8.38,0,0,1-8.37-8.36h3a5.37,5.37,0,0,0,5.37,5.36Z"/><path class="cls-1" d="M60.88,111h-13a9,9,0,0,1-9-9V88h3v14a6,6,0,0,0,6,6h13Z"/><path class="cls-1" d="M53.88,92a35,35,0,1,1,35-35A35,35,0,0,1,53.88,92Zm0-67a32,32,0,1,0,32,32A32,32,0,0,0,53.88,25Z"/><rect class="cls-1" x="50.88" width="3" height="9"/><rect class="cls-1" x="21.4" y="9" width="3" height="8.89" transform="translate(-3.39 17.16) rotate(-38.46)"/><rect class="cls-1" x="3.09" y="32.63" width="3" height="8.89" transform="translate(-32.77 37.41) rotate(-83.46)"/><rect class="cls-1" x="95.68" y="34.56" width="8.89" height="3" transform="translate(-3.46 11.64) rotate(-6.54)"/><rect class="cls-1" x="76.84" y="12.04" width="9.24" height="3" transform="translate(19.3 67.89) rotate(-50.6)"/><path class="cls-3" d="M116.62,65.81,114,64.29c.68-1.16,1.4-2.33,2.13-3.46l2.52,1.63C118,63.55,117.29,64.68,116.62,65.81Zm4.27-6.62-2.45-1.73c.77-1.11,1.58-2.21,2.4-3.27L123.22,56C122.43,57.05,121.64,58.12,120.89,59.19Zm4.79-6.25L123.38,51c.87-1,1.77-2.07,2.67-3.06l2.22,2C127.39,50.94,126.52,51.94,125.68,52.94Zm5.3-5.82L128.84,45c.95-1,1.93-1.91,2.92-2.83l2,2.19C132.85,45.27,131.9,46.19,131,47.12Zm5.76-5.37-2-2.28c1-.88,2.08-1.75,3.14-2.58l1.85,2.36C138.75,40.06,137.73,40.9,136.74,41.75Zm6.18-4.87-1.76-2.43c1.09-.8,2.22-1.57,3.34-2.31l1.65,2.5C145.07,35.35,144,36.11,142.92,36.88Zm6.56-4.34L147.93,30c1.16-.7,2.34-1.38,3.52-2l1.44,2.63C151.75,31.2,150.6,31.86,149.48,32.54Zm6.9-3.78-1.33-2.69c1.21-.6,2.44-1.18,3.67-1.73l1.22,2.75C158.75,27.61,157.55,28.18,156.38,28.76Zm7.18-3.19-1.1-2.79c1.26-.5,2.54-1,3.81-1.41l1,2.83C166,24.63,164.78,25.09,163.56,25.57ZM171,23l-.86-2.87c1.28-.39,2.6-.75,3.91-1.09l.74,2.91C173.51,22.26,172.24,22.62,171,23Zm7.62-1.94L178,18.11c1.32-.28,2.66-.53,4-.76l.5,3C181.19,20.53,179.89,20.78,178.61,21.05Zm7.76-1.31-.37-3c1.33-.17,2.69-.31,4-.42l.25,3C189,19.44,187.67,19.58,186.37,19.74Z"/><path class="cls-3" d="M282.57,163,280,161.5c.66-1.12,1.31-2.28,1.92-3.43l2.65,1.41C283.93,160.67,283.26,161.86,282.57,163Zm3.82-7.17-2.7-1.3c.56-1.17,1.11-2.38,1.63-3.58l2.76,1.18C287.54,153.4,287,154.64,286.39,155.85Zm3.21-7.46-2.8-1.07c.47-1.22.91-2.47,1.32-3.71l2.85.95C290.54,145.84,290.08,147.13,289.6,148.39Zm2.58-7.71-2.89-.83c.37-1.25.71-2.53,1-3.8l2.91.71C292.9,138.07,292.55,139.39,292.18,140.68Zm1.92-7.89-2.94-.59c.25-1.28.48-2.58.68-3.87l3,.46C294.6,130.12,294.36,131.47,294.1,132.79Zm1.25-8-3-.34c.15-1.3.27-2.62.36-3.92l3,.21C295.63,122.06,295.5,123.42,295.35,124.76Zm.58-8.1-3-.09c0-.95,0-1.89,0-2.84v-1.1l3,0v1.14C296,114.71,296,115.69,295.93,116.66Zm-3.09-8-.06-1.06c-.06-1-.14-1.92-.23-2.87l3-.28c.09,1,.17,2,.23,3,0,.36.05.73.07,1.09Zm-.73-7.84c-.18-1.29-.38-2.6-.61-3.89l2.95-.52c.24,1.33.45,2.68.63,4Zm-1.38-7.74c-.28-1.27-.59-2.56-.93-3.83l2.9-.77c.35,1.31.67,2.64,1,3.95Zm-2-7.61c-.38-1.25-.8-2.51-1.24-3.73l2.82-1c.46,1.27.89,2.56,1.29,3.85Zm-2.64-7.41c-.49-1.21-1-2.43-1.56-3.62l2.74-1.24c.55,1.23,1.09,2.48,1.6,3.73Zm-3.26-7.17c-.59-1.16-1.21-2.33-1.85-3.47L283.58,66c.66,1.18,1.3,2.38,1.91,3.59Z"/></g></g></svg>