<svg xmlns="http://www.w3.org/2000/svg" viewBox="0 0 335.64 326.74"><defs><style>.cls-1{fill:#fff;}.cls-2{fill:#ff8cac;}.cls-3{fill:#ff6c6c;}</style></defs><g id="Layer_2" data-name="Layer 2"><g id="Illustrations"><polygon class="cls-1" points="185.45 50.24 182.48 49.84 184.07 38.06 195.12 38.96 189.47 16.89 211.84 29 210.41 31.63 194.08 22.8 199.06 42.29 186.66 41.28 185.45 50.24"/><path class="cls-2" d="M328.64,286.74a7,7,0,1,1,7-7A7,7,0,0,1,328.64,286.74Zm0-11a4,4,0,1,0,4,4A4,4,0,0,0,328.64,275.74Z"/><path class="cls-2" d="M24.17,246.63,16,228.48l21.57,2.72Zm-3.23-14.5,4,9,6.64-7.65Z"/><path class="cls-1" d="M320.3,192.79l-8.16-18.14,21.57,2.72Zm-3.23-14.5,4,9,6.65-7.64Z"/><path class="cls-3" d="M279.3,211.74l17.84-65.13L217.53,124.8a7.27,7.27,0,0,0-8.93,5.09L199,161.62l7.14,50.12Zm-62.14-69.51,56.37,15.44-6.18,22.55-56.47-15.06Z"/><path class="cls-1" d="M281.43,211.91l-2.89-.79L297.74,141l-86.63-23.73a6.53,6.53,0,0,0-8,4.57l-3.76,12.42-2.88-.87,3.75-12.38a9.54,9.54,0,0,1,11.71-6.64l89.52,24.53Z"/><path class="cls-1" d="M268.4,182.06l-59.26-16.23,7-25.44,59.26,16.23Zm-55.58-18.33,53.48,14.65,5.38-19.66-53.47-14.64Z"/><rect class="cls-2" x="233.71" y="149.07" width="3" height="20.46" transform="translate(19.43 344.06) rotate(-74.68)"/><rect class="cls-2" x="254.85" y="162.16" width="3" height="5.84" transform="translate(29.39 368.7) rotate(-74.68)"/><path class="cls-3" d="M198.89,211.87,184,101.69,85.08,115a8.78,8.78,0,0,0-7.53,9.88l11.84,87.83ZM95.1,133.74l68-9.17,5.35,41.33-68,9.16Z"/><path class="cls-1" d="M197.34,211.72,181.66,95.41,76.88,109.54a7.94,7.94,0,0,0-6.8,8.92l12.37,91.77-3,.4L67.1,118.86a11,11,0,0,1,9.38-12.29L184.23,92l16.08,119.28Z"/><path class="cls-1" d="M99.15,176.83l-6-44.15,71-9.57,5.95,44.15Zm-2.57-41.58,5.15,38.2,65-8.76-5.15-38.21Z"/><rect class="cls-2" x="110.22" y="142.63" width="24.02" height="3" transform="translate(-18.14 17.6) rotate(-7.67)"/><rect class="cls-2" x="144.3" y="139.19" width="6.86" height="3" transform="translate(-17.46 20.98) rotate(-7.67)"/><path class="cls-1" d="M107.14,305.25c-5.24,0-9.5-5.46-9.5-12.17V270.74h3v22.34c0,5,3,9.17,6.5,9.17s6.5-4.2,6.5-9.17V263.74h3v29.34C116.64,299.79,112.38,305.25,107.14,305.25Z"/><path class="cls-1" d="M153.14,305.83c-5.24,0-9.5-5.46-9.5-12.17V251.74h3v41.92c0,5,3,9.17,6.5,9.17s6.5-4.2,6.5-9.17V245.74h3v47.92C162.64,300.37,158.38,305.83,153.14,305.83Z"/><path class="cls-1" d="M198.14,305.81c-5.24,0-9.5-5.36-9.5-11.94V245.74h3v48.13c0,4.85,3,8.94,6.5,8.94s6.5-4.2,6.5-9.36V245.74h3v47.71C207.64,300.38,203.47,305.81,198.14,305.81Z"/><path class="cls-1" d="M244.14,305.8c-5.24,0-9.5-5.36-9.5-11.94V245.74h3v48.12c0,4.84,3,8.94,6.5,8.94s6.5-4.1,6.5-8.94V245.74h3v48.12C253.64,300.44,249.38,305.8,244.14,305.8Z"/><path class="cls-1" d="M263.52,326.74H92.76a24.15,24.15,0,0,1-24.12-24.12V281.74h3v20.88a21.14,21.14,0,0,0,21.12,21.12H263.52a21.14,21.14,0,0,0,21.12-21.12V245.74h3v56.88A24.15,24.15,0,0,1,263.52,326.74Z"/><path class="cls-1" d="M43.07,295.16,34.25,273.8l143.26-59.09,8.82,21.36Zm-4.9-19.73,6.52,15.82,137.72-56.81-6.53-15.81Z"/><polygon class="cls-1" points="298.64 246.74 160.64 246.74 160.64 243.74 295.64 243.74 295.64 212.74 61.64 212.74 61.64 243.74 105.64 243.74 105.64 246.74 58.64 246.74 58.64 209.74 298.64 209.74 298.64 246.74"/><rect class="cls-1" x="68.64" y="245.74" width="3" height="14"/><rect class="cls-2" x="66.64" y="227.74" width="65" height="3"/><rect class="cls-2" x="194.64" y="227.74" width="95" height="3"/><rect class="cls-1" x="72.64" y="312.74" width="210" height="3"/><rect class="cls-1" x="46.64" y="323.74" width="46" height="3"/><rect class="cls-1" x="262.64" y="323.74" width="37" height="3"/><rect class="cls-1" x="309.64" y="323.74" width="10" height="3"/><path class="cls-1" d="M50.13,133.74a5.49,5.49,0,1,1,1.68-.26A5.4,5.4,0,0,1,50.13,133.74Zm0-8a2.51,2.51,0,0,0-.76.12,2.47,2.47,0,0,0-1.46,1.23,2.44,2.44,0,0,0-.16,1.91,2.5,2.5,0,0,0,4.6.39,2.53,2.53,0,0,0,.16-1.91A2.5,2.5,0,0,0,51.29,126,2.44,2.44,0,0,0,50.14,125.74Z"/><polygon class="cls-2" points="45.63 196.55 0 173.38 23.67 126.96 38.88 120.48 40.06 123.24 25.84 129.29 4.04 172.06 44.3 192.51 57.73 165.92 60.41 167.28 45.63 196.55"/><path class="cls-2" d="M40.72,122.71l-2.66-1.38a14.25,14.25,0,0,1,10.36-7.17l.51,3A11.24,11.24,0,0,0,40.72,122.71Z"/><path class="cls-2" d="M54,151.75,29.24,139l8.89-17.76,2.68,1.34-7.56,15.11,19.5,10.09,7.9-14.57a11,11,0,0,0-4.79-14.6,10.84,10.84,0,0,0-2-.81l.82-2.88a13.8,13.8,0,0,1,2.6,1,14,14,0,0,1,6.08,18.62l-.1.19Z"/><path class="cls-1" d="M52.07,124.17l-3-.24,1.69-20.75a11.92,11.92,0,0,1,23.71-.49l-3,.37a8.86,8.86,0,0,0-4.94-6.92,8.92,8.92,0,0,0-12.8,7.28Z"/><polygon class="cls-2" points="330.64 47.74 327.64 47.74 327.64 39.74 251.64 39.74 251.64 47.74 248.64 47.74 248.64 36.74 330.64 36.74 330.64 47.74"/><path class="cls-2" d="M282.27,32.69a8.62,8.62,0,1,1,8.62-8.62A8.63,8.63,0,0,1,282.27,32.69Zm0-14.24a5.62,5.62,0,1,0,5.62,5.62A5.63,5.63,0,0,0,282.27,18.45Z"/><path class="cls-2" d="M296.74,32.69a8.6,8.6,0,0,1-4.45-1.23l1.55-2.57a5.55,5.55,0,0,0,2.9.8,5.62,5.62,0,1,0-3.14-10.28l-1.68-2.48a8.51,8.51,0,0,1,4.82-1.48,8.62,8.62,0,1,1,0,17.24Z"/><path class="cls-2" d="M296.06,116.74H283.2a33.65,33.65,0,0,1-16.49-4.29l1.46-2.61a30.81,30.81,0,0,0,15,3.9h12.86a30.65,30.65,0,0,0,29.76-37.95l-6.65-27.05H258.64v-3h62.88l7.21,29.33a33.64,33.64,0,0,1-32.67,41.67Z"/><path class="cls-2" d="M241.64,100.74V96.92l-1.13-.07c-2.58-.24-7.11-1.29-9.32-5.48l3.24-1.31c1.54,2.53,5.15,3.87,8.16,3.9,4.69,0,7.61-1.85,7.64-4.92,0-3.38-4.32-4.31-7.59-4.71-5.92-.7-10.44-1.68-10.39-7.29s6.52-6.83,8.5-7l.89-.08V66.74h3v3.19l.91.1c3.52.56,5.78,1.86,7.18,4.2l-2.93,1.3a9.63,9.63,0,0,0-6.88-2.79c-4.47,0-7,1.54-7.07,4.33,0,3.34,3.91,3.83,7.07,4.22,6.12.79,11.19,1.92,11.14,7.79,0,4.89-4.38,7.35-8.67,7.62l-.75,0v4Z"/><path class="cls-1" d="M252.43,111.81l-1-2.83a27.94,27.94,0,0,0,3.47-1.5l1.38,2.66A28.64,28.64,0,0,1,252.43,111.81Zm7.45-3.86-1.73-2.44c.66-.47,1.31-1,1.94-1.51.34-.29.67-.59,1-.89l2.05,2.19-1.11,1C261.34,106.87,260.62,107.43,259.88,108ZM220,103.73c-.27-.29-.53-.59-.79-.9a29.38,29.38,0,0,1-1.83-2.37l2.46-1.72c.51.74,1.07,1.46,1.65,2.15l.72.81Zm46-1.51-2.33-1.89a26.43,26.43,0,0,0,2.16-3.1l2.58,1.54A30.44,30.44,0,0,1,266,102.22Zm-50.82-5.37A31.54,31.54,0,0,1,213.54,93l2.84-1a27.46,27.46,0,0,0,1.48,3.49ZM270.31,95l-2.76-1.18a28,28,0,0,0,1.24-3.58l2.89.78A29.69,29.69,0,0,1,270.31,95Zm-57.84-6.12a29.28,29.28,0,0,1-.51-4.18l3-.15a28,28,0,0,0,.46,3.76Zm60-2-3-.38a28.11,28.11,0,0,0,.21-3.44v-.34l3,0v.39A30.45,30.45,0,0,1,272.49,86.93ZM215,80.79l-3-.26a30.59,30.59,0,0,1,.64-4.15l2.93.66A26.34,26.34,0,0,0,215,80.79Zm54.4-1.8a27.79,27.79,0,0,0-.82-3.7l2.87-.85a30.35,30.35,0,0,1,.92,4.1Zm-52.73-5.58-2.81-1.06a32.14,32.14,0,0,1,1.76-3.82L218.27,70A27.39,27.39,0,0,0,216.69,73.41Zm50.58-1.66a26.12,26.12,0,0,0-1.81-3.33L268,66.81a30.63,30.63,0,0,1,2,3.69Zm-47-5L217.9,65a32,32,0,0,1,2.74-3.19l2.14,2.11A27.92,27.92,0,0,0,220.31,66.78Zm42.87-1.44a27.6,27.6,0,0,0-2.62-2.68l2-2.24a29.58,29.58,0,0,1,2.92,3l-1.13,1ZM225.62,61.4,223.79,59a30,30,0,0,1,3.5-2.33l1.48,2.61A26.13,26.13,0,0,0,225.62,61.4Zm31.95-1.06a27.47,27.47,0,0,0-3.29-1.89l1.31-2.7a32.16,32.16,0,0,1,3.65,2.09Zm-25.38-2.69-1.11-2.78a29.55,29.55,0,0,1,4-1.28l.71,2.91A28.43,28.43,0,0,0,232.19,57.65Zm18.58-.6a27.5,27.5,0,0,0-3.68-.92l.52-3a30.38,30.38,0,0,1,4.08,1Zm-11.24-1.19-.3-3a31,31,0,0,1,4.2-.13l-.11,3A26.63,26.63,0,0,0,239.53,55.86Z"/><rect class="cls-1" x="67.76" y="33.77" width="3" height="9.05" transform="translate(-2.64 71.37) rotate(-53.64)"/><rect class="cls-1" x="78.89" y="18.65" width="3" height="9.05" transform="translate(14.07 74.18) rotate(-53.64)"/><path class="cls-1" d="M61.35,43.66l-10.73-7.9L72.15,6.51l10.73,7.9Zm-6.53-8.54,5.9,4.34,18-24.41-5.9-4.34Z"/><path class="cls-1" d="M56.39,29.91,40.67,18.6A5.44,5.44,0,0,1,39.5,11L46,2.21a5.44,5.44,0,0,1,7.6-1.15l15.71,11.3-1.75,2.43L51.8,3.48A2.45,2.45,0,0,0,48.38,4l-6.46,8.78a2.43,2.43,0,0,0,.51,3.4l15.72,11.3Z"/><path class="cls-2" d="M93,96.78a43.93,43.93,0,0,1-4.77-2.35,42.35,42.35,0,1,1,47.11-3.31l-1.85-2.37a39.41,39.41,0,1,0-43.77,3.08A40.53,40.53,0,0,0,94.2,94Zm16.25-8.36a30.87,30.87,0,1,1,8.12-1.09A30.62,30.62,0,0,1,109.29,88.42Zm.1-58.56a27.76,27.76,0,1,0,13.75,3.66A27.78,27.78,0,0,0,109.39,29.86Z"/><path class="cls-1" d="M97.42,75.64,99.7,62.37,90.06,53,103.38,51l6-12.08,6,12.08L128.62,53,119,62.37l2.28,13.27-11.92-6.26ZM109.34,66l7.93,4.17-1.51-8.83,6.42-6.26-8.87-1.29-4-8-4,8L96.5,55.07l6.42,6.26-1.51,8.83Z"/></g></g></svg>