<svg xmlns="http://www.w3.org/2000/svg" viewBox="0 0 329.28 317.75"><defs><style>.cls-1{fill:#ff8cac;}.cls-2{fill:#fff;}.cls-3{fill:#ff6c6c;}</style></defs><g id="Layer_2" data-name="Layer 2"><g id="Illustrations"><path class="cls-1" d="M245.25,111.22a22.63,22.63,0,0,1-9-1.92A36.43,36.43,0,0,0,219.1,105H206.75v-3H219.1a39.3,39.3,0,0,1,18.47,4.63,19.3,19.3,0,0,0,15.41,0,39.22,39.22,0,0,1,18.41-4.6h42.74a2.62,2.62,0,0,0,2.62-2.61V17.61A2.62,2.62,0,0,0,314.13,15h-5.38V12h5.38a5.62,5.62,0,0,1,5.62,5.61V99.39a5.62,5.62,0,0,1-5.62,5.61H271.39a36.34,36.34,0,0,0-17,4.27A22.57,22.57,0,0,1,245.25,111.22Z"/><path class="cls-1" d="M173.75,39h-3V17.61A5.61,5.61,0,0,1,176.36,12h5.39v3h-5.39a2.61,2.61,0,0,0-2.61,2.61Z"/><path class="cls-1" d="M246.75,98h-3V9.11C242.61,7.76,237.9,3,228.23,3H186.36a2.61,2.61,0,0,0-2.61,2.61V39h-3V5.61A5.61,5.61,0,0,1,186.36,0h41.87c12.66,0,18,7.41,18.24,7.73l.28.39Z"/><rect class="cls-1" x="196.75" y="52" width="36" height="3"/><rect class="cls-1" x="206.75" y="64" width="26" height="3"/><rect class="cls-1" x="196.75" y="14" width="36" height="3"/><rect class="cls-1" x="196.75" y="40" width="32" height="3"/><rect class="cls-1" x="206.75" y="76" width="10" height="3"/><rect class="cls-1" x="226.75" y="76" width="6" height="3"/><rect class="cls-1" x="220.75" y="28" width="12" height="3"/><rect class="cls-1" x="196.75" y="28" width="14" height="3"/><path class="cls-1" d="M245.25,101.67l-.91-.69a32.3,32.3,0,0,0-18.7-6H206.75V92h18.89a35.31,35.31,0,0,1,19.61,5.93A35.25,35.25,0,0,1,264.85,92h39.2a2.7,2.7,0,0,0,2.7-2.69V5.61A2.62,2.62,0,0,0,304.13,3H262.26a23.06,23.06,0,0,0-15.51,5.84V83h-3V7.63l.39-.43A25.51,25.51,0,0,1,262.26,0h41.87a5.62,5.62,0,0,1,5.62,5.61v83.7a5.7,5.7,0,0,1-5.7,5.69h-39.2a32.3,32.3,0,0,0-18.7,6Z"/><rect class="cls-1" x="256.75" y="52" width="33" height="3"/><rect class="cls-1" x="256.75" y="64" width="37" height="3"/><rect class="cls-1" x="256.75" y="14" width="37" height="3"/><rect class="cls-1" x="256.75" y="40" width="37" height="3"/><rect class="cls-1" x="256.75" y="76" width="25" height="3"/><rect class="cls-1" x="256.75" y="28" width="25" height="3"/><polygon class="cls-2" points="216.63 307.06 215.77 304.19 233.57 298.89 216.26 288.63 225.75 280.57 220.27 273.38 222.66 271.56 229.86 281.02 221.41 288.19 241 299.8 216.63 307.06"/><path class="cls-1" d="M21.75,26a7,7,0,1,1,7-7A7,7,0,0,1,21.75,26Zm0-11a4,4,0,1,0,4,4A4,4,0,0,0,21.75,15Z"/><path class="cls-1" d="M315.87,173.87l-8.15-18.14,21.56,2.71Zm-3.22-14.5,4,9,6.64-7.64Z"/><rect class="cls-3" x="73.75" y="64" width="113" height="146"/><path class="cls-3" d="M114.11,264H81.41c-19.29,0-28.08-13.66-26.09-32.16A28.35,28.35,0,0,1,58,222.62c-.72,6.55-1.64,19.41,6.61,25.6C72.05,253.85,91,252,91,252l57.69-.13s0,.13.56,3.21c-5.75,13.15-33.26,26-33.26,26C125.08,278.16,121,264,114.11,264Z"/><path class="cls-2" d="M182.06,254H75.43a19.71,19.71,0,0,1-19.68-19.69V63.69A19.71,19.71,0,0,1,75.43,44H182.06a19.72,19.72,0,0,1,19.69,19.69V121h-3V63.69A16.71,16.71,0,0,0,182.06,47H75.43A16.7,16.7,0,0,0,58.75,63.69V234.31A16.7,16.7,0,0,0,75.43,251H182.06a16.71,16.71,0,0,0,16.69-16.69V203h3v31.31A19.72,19.72,0,0,1,182.06,254Z"/><path class="cls-1" d="M150.83,231.83a5.45,5.45,0,1,1-5.44-5.45A5.45,5.45,0,0,1,150.83,231.83Z"/><path class="cls-1" d="M135.34,231.83a5.45,5.45,0,1,1-5.45-5.45A5.45,5.45,0,0,1,135.34,231.83Z"/><path class="cls-1" d="M119.84,231.83a5.45,5.45,0,1,1-5.45-5.45A5.45,5.45,0,0,1,119.84,231.83Z"/><path class="cls-2" d="M98.83,290.26l-1.76-2.43c3.58-2.58,8.43-4.72,14-7.2,12.76-5.63,28.63-12.63,38.44-29l2.57,1.54c-10.3,17.17-26.65,24.39-39.8,30.19C106.86,285.79,102.15,287.87,98.83,290.26Z"/><path class="cls-2" d="M28.05,234.15l-2.94-.58c1.68-8.61-4.43-27.81-7.72-38.12-.6-1.88-1.12-3.52-1.51-4.82-3-10,1.86-22.11,7.5-36.1,5.8-14.38,12.37-30.68,12.56-49.21C36,97,41.28,92.41,46.43,92.11s11.09,3.69,12.29,13.28l-3,.37c-1-7.66-5.27-10.87-9.14-10.65-3.65.21-7.6,3.5-7.67,10.24-.19,19.1-6.88,35.67-12.77,50.3-5.43,13.47-10.12,25.1-7.42,34.12.39,1.28.9,2.9,1.5,4.77C23.85,205.85,29.88,224.78,28.05,234.15Z"/><path class="cls-2" d="M202.72,200.3a12.22,12.22,0,0,1-.27-24.43l2.19-.05a12.24,12.24,0,0,1,12.48,11.94,12.23,12.23,0,0,1-11.94,12.49l-2.18.05Zm2.19-21.48h-.21l-2.18.05a9.22,9.22,0,0,0,.41,18.43l2.18-.05a9.22,9.22,0,0,0,9-9.42,9.23,9.23,0,0,0-9.21-9Z"/><path class="cls-2" d="M202.66,178.87a12.22,12.22,0,0,1-.27-24.43l2.18-.05a12.22,12.22,0,0,1,.55,24.43l-2.19.05Zm2.19-21.48h-.21l-2.18.05a9.22,9.22,0,0,0,.41,18.43l2.18-.05a9.22,9.22,0,0,0-.2-18.43Z"/><path class="cls-2" d="M202.59,157.44a12.22,12.22,0,0,1-.27-24.43l2.19,0a12.21,12.21,0,0,1,9.09,20.65,12.19,12.19,0,0,1-8.55,3.78l-2.18.05ZM204.78,136h-.21l-2.18,0a9.22,9.22,0,0,0,.41,18.43l2.18-.05a9.22,9.22,0,0,0-.2-18.43Z"/><polygon class="cls-2" points="82.55 317.75 80.52 315.55 91.86 305.04 26.21 234.19 1.99 255.71 0 253.47 26.42 230 96.1 305.2 82.55 317.75"/><path class="cls-1" d="M30.08,258.37A7.34,7.34,0,1,1,20,255.88,7.35,7.35,0,0,1,30.08,258.37Z"/><path class="cls-2" d="M43.75,75h-3V62.36A36.4,36.4,0,0,1,77.11,26h4.64v3H77.11A33.4,33.4,0,0,0,43.75,62.36Z"/><path class="cls-2" d="M180.88,268.26v-3a31.43,31.43,0,0,0,31.4-31.4h3A34.44,34.44,0,0,1,180.88,268.26Z"/><path class="cls-2" d="M163.75,83h-4V80h4Zm-8,0h-4V80h4Zm-8,0h-4V80h4Zm-8,0h-4V80h4Zm-8,0h-4V80h4Zm-8,0h-4V80h4Zm-8,0h-4V80h4Zm-8,0h-4V80h4Zm-8,0h-4V80h4Zm-8,0h-4V80h4Z"/><path class="cls-2" d="M131.75,100h-4V97h4Zm-8,0h-4V97h4Zm-8,0h-4V97h4Zm-8,0h-4V97h4Zm-8,0h-4V97h4Zm-8,0h-4V97h4Z"/><rect class="cls-2" x="87.75" y="118" width="72" height="3"/><rect class="cls-2" x="87.75" y="136" width="72" height="3"/><path class="cls-2" d="M171.75,159h-4v-3h4Zm-8,0h-4v-3h4Zm-8,0h-4v-3h4Zm-8,0h-4v-3h4Zm-8,0h-4v-3h4Zm-8,0h-4v-3h4Zm-8,0h-4v-3h4Zm-8,0h-4v-3h4Zm-8,0h-4v-3h4Zm-8,0h-4v-3h4Zm-8,0h-4v-3h4Z"/><rect class="cls-2" x="87.75" y="174" width="69" height="3"/><rect class="cls-2" x="87.75" y="195" width="80" height="3"/><rect class="cls-2" x="89.75" y="26" width="8" height="3"/><rect class="cls-2" x="162.75" y="265" width="10" height="3"/><path class="cls-2" d="M222.71,210.36l-1.2-2.74c1.2-.53,2.4-1.09,3.57-1.66l1.31,2.7C225.19,209.25,224,209.82,222.71,210.36Zm7.29-3.54-1.41-2.65c1.15-.61,2.31-1.26,3.43-1.92l1.52,2.59C232.38,205.52,231.19,206.18,230,206.82Zm7-4.1-1.62-2.53c1.1-.7,2.21-1.44,3.28-2.19l1.71,2.47C239.27,201.23,238.13,202,237,202.72Zm6.65-4.63-1.8-2.4c1-.78,2.08-1.6,3.09-2.43l1.9,2.32C245.8,196.43,244.73,197.28,243.65,198.09Zm6.28-5.14-2-2.24c1-.87,2-1.77,2.9-2.67l2.08,2.17C252,191.14,250.94,192.06,249.93,193Zm5.87-5.6-2.16-2.09c.91-.94,1.81-1.91,2.69-2.88l2.23,2C257.66,185.38,256.73,186.38,255.8,187.35Zm5.41-6-2.31-1.91c.84-1,1.66-2,2.46-3.09l2.38,1.83C262.92,179.2,262.07,180.26,261.21,181.3Zm4.93-6.44-2.45-1.73c.75-1.07,1.5-2.17,2.21-3.27l2.52,1.63C267.68,172.62,266.92,173.76,266.14,174.86Zm4.42-6.82L268,166.51c.67-1.13,1.33-2.28,1.95-3.43l2.64,1.43C271.92,165.7,271.25,166.88,270.56,168Zm3.87-7.13-2.69-1.33c.59-1.18,1.15-2.38,1.68-3.57l2.74,1.22C275.61,158.46,275,159.69,274.43,160.91Zm3.31-7.42L275,152.37c.48-1.21,1-2.45,1.39-3.69l2.82,1C278.72,151,278.24,152.24,277.74,153.49Zm2.72-7.66-2.87-.89c.39-1.25.76-2.53,1.1-3.8l2.9.78C281.24,143.23,280.86,144.54,280.46,145.83Zm2.1-7.86-2.92-.66c.29-1.27.55-2.57.79-3.86l2.95.55C283.14,135.33,282.86,136.67,282.56,138Zm1.49-8-3-.44c.19-1.29.35-2.6.49-3.91l3,.32C284.41,127.31,284.24,128.67,284.05,130Zm.85-8.07-3-.2c.09-1.31.15-2.63.19-3.94l3,.09C285.06,119.22,285,120.59,284.9,121.93Z"/><path class="cls-2" d="M114.32,38.52l-2-2.26c1-.88,2.06-1.76,3.11-2.61L117.34,36C116.32,36.81,115.3,37.66,114.32,38.52Zm6.14-5-1.8-2.41c1.09-.8,2.2-1.6,3.31-2.36l1.69,2.48C122.59,32,121.51,32.79,120.46,33.57ZM127,29.11l-1.59-2.54c1.13-.71,2.3-1.42,3.47-2.09l1.5,2.6C129.2,27.73,128.06,28.41,127,29.11Zm6.83-3.94-1.4-2.65c1.19-.63,2.41-1.24,3.63-1.82l1.29,2.7C136.12,24,134.93,24.56,133.78,25.17Zm7.11-3.39L139.7,19c1.24-.53,2.5-1.05,3.76-1.53l1.08,2.8C143.32,20.76,142.09,21.26,140.89,21.78ZM148.24,19l-1-2.84c1.28-.44,2.58-.85,3.86-1.23l.86,2.87C150.75,18.12,149.48,18.53,148.24,19Zm7.56-2.25-.75-2.9c1.31-.34,2.64-.65,4-.93l.62,2.94C158.35,16.08,157.06,16.38,155.8,16.7Z"/><polygon class="cls-3" points="275.25 210.45 282.06 224.26 297.31 226.47 286.28 237.22 288.88 252.41 275.25 245.24 261.61 252.41 264.22 237.22 253.19 226.47 268.43 224.26 275.25 210.45"/><path class="cls-1" d="M275.23,276.85A43.46,43.46,0,0,1,233.31,222l2.9.79a40.45,40.45,0,1,0,49.62-28.45,41.21,41.21,0,0,0-5.35-1.08l.39-3a43.66,43.66,0,0,1,5.75,1.15,43.45,43.45,0,0,1-11.39,85.39Z"/></g></g></svg>